<?xml version="1.0" encoding="utf-8" standalone="no"?>
<!DOCTYPE svg PUBLIC "-//W3C//DTD SVG 1.1//EN"
  "http://www.w3.org/Graphics/SVG/1.1/DTD/svg11.dtd">
<svg xmlns:xlink="http://www.w3.org/1999/xlink" width="900.616pt" height="280.825pt" viewBox="0 0 900.616 280.825" xmlns="http://www.w3.org/2000/svg" version="1.1">
 <metadata>
  <rdf:RDF xmlns:dc="http://purl.org/dc/elements/1.1/" xmlns:cc="http://creativecommons.org/ns#" xmlns:rdf="http://www.w3.org/1999/02/22-rdf-syntax-ns#">
   <cc:Work>
    <dc:type rdf:resource="http://purl.org/dc/dcmitype/StillImage"/>
    <dc:date>2024-12-25T01:18:57.220937</dc:date>
    <dc:format>image/svg+xml</dc:format>
    <dc:creator>
     <cc:Agent>
      <dc:title>Matplotlib v3.9.3, https://matplotlib.org/</dc:title>
     </cc:Agent>
    </dc:creator>
   </cc:Work>
  </rdf:RDF>
 </metadata>
 <defs>
  <style type="text/css">*{stroke-linejoin: round; stroke-linecap: butt}</style>
 </defs>
 <g id="figure_1">
  <g id="patch_1">
   <path d="M 0 280.825 
L 900.616 280.825 
L 900.616 0 
L 0 0 
z
" style="fill: #ffffff"/>
  </g>
  <g id="axes_1">
   <g id="patch_2">
    <path d="M 51.2 252 
L 782 252 
L 782 7.2 
L 51.2 7.2 
z
" style="fill: #ffffff"/>
   </g>
   <g id="matplotlib.axis_1">
    <g id="xtick_1">
     <g id="line2d_1">
      <defs>
       <path id="m92549b7b39" d="M 0 0 
L 0 3.5 
" style="stroke: #000000; stroke-width: 0.8"/>
      </defs>
      <g>
       <use xlink:href="#m92549b7b39" x="60.690909" y="252" style="stroke: #000000; stroke-width: 0.8"/>
      </g>
     </g>
     <g id="text_1">
      <!-- 2023-08 -->
      <g transform="translate(43.190909 272.375) scale(0.1 -0.1)">
       <defs>
        <path id="SimHei-32" d="M 300 250 
Q 325 625 650 925 
Q 975 1225 1475 1862 
Q 1975 2500 2125 2850 
Q 2275 3200 2237 3450 
Q 2200 3700 2000 3862 
Q 1800 4025 1537 4000 
Q 1275 3975 1037 3800 
Q 800 3625 675 3275 
L 200 3350 
Q 400 3925 712 4187 
Q 1025 4450 1450 4475 
Q 1700 4500 1900 4462 
Q 2100 4425 2312 4287 
Q 2525 4150 2662 3875 
Q 2800 3600 2762 3212 
Q 2725 2825 2375 2287 
Q 2025 1750 1025 600 
L 2825 600 
L 2825 150 
L 300 150 
L 300 250 
z
" transform="scale(0.015625)"/>
        <path id="SimHei-30" d="M 225 2537 
Q 250 3200 412 3587 
Q 575 3975 875 4225 
Q 1175 4475 1612 4475 
Q 2050 4475 2375 4112 
Q 2700 3750 2800 3200 
Q 2900 2650 2862 1937 
Q 2825 1225 2612 775 
Q 2400 325 1975 150 
Q 1550 -25 1125 187 
Q 700 400 525 750 
Q 350 1100 275 1487 
Q 200 1875 225 2537 
z
M 750 2687 
Q 675 2000 800 1462 
Q 925 925 1212 700 
Q 1500 475 1800 612 
Q 2100 750 2237 1162 
Q 2375 1575 2375 2062 
Q 2375 2550 2337 2950 
Q 2300 3350 2112 3675 
Q 1925 4000 1612 4012 
Q 1300 4025 1062 3700 
Q 825 3375 750 2687 
z
" transform="scale(0.015625)"/>
        <path id="SimHei-33" d="M 250 1225 
L 700 1300 
Q 800 975 1025 762 
Q 1250 550 1587 562 
Q 1925 575 2125 837 
Q 2325 1100 2300 1437 
Q 2275 1775 2037 1962 
Q 1800 2150 1275 2225 
L 1275 2550 
Q 1800 2600 2037 2825 
Q 2275 3050 2250 3412 
Q 2225 3775 1925 3937 
Q 1625 4100 1287 3975 
Q 950 3850 750 3275 
L 300 3350 
Q 450 3800 712 4100 
Q 975 4400 1425 4450 
Q 1875 4500 2212 4337 
Q 2550 4175 2687 3837 
Q 2825 3500 2725 3100 
Q 2625 2700 2150 2400 
Q 2500 2250 2687 1950 
Q 2875 1650 2812 1162 
Q 2750 675 2375 375 
Q 2000 75 1525 87 
Q 1050 100 700 387 
Q 350 675 250 1225 
z
" transform="scale(0.015625)"/>
        <path id="SimHei-2d" d="M 2975 2125 
L 125 2125 
L 125 2525 
L 2975 2525 
L 2975 2125 
z
" transform="scale(0.015625)"/>
        <path id="SimHei-38" d="M 175 1375 
Q 175 1675 325 1962 
Q 475 2250 825 2425 
Q 525 2600 425 2812 
Q 325 3025 312 3300 
Q 300 3575 387 3775 
Q 475 3975 650 4150 
Q 825 4325 1037 4387 
Q 1250 4450 1500 4450 
Q 1750 4450 1950 4400 
Q 2150 4350 2375 4187 
Q 2600 4025 2700 3725 
Q 2800 3425 2687 3025 
Q 2575 2625 2100 2400 
Q 2525 2275 2700 2012 
Q 2875 1750 2875 1375 
Q 2875 1000 2762 775 
Q 2650 550 2512 400 
Q 2375 250 2137 162 
Q 1900 75 1537 75 
Q 1175 75 912 162 
Q 650 250 475 425 
Q 300 600 237 837 
Q 175 1075 175 1375 
z
M 687 1400 
Q 675 1100 787 875 
Q 900 650 1200 587 
Q 1500 525 1825 600 
Q 2150 675 2275 950 
Q 2400 1225 2362 1500 
Q 2325 1775 2050 1962 
Q 1775 2150 1450 2125 
Q 1125 2100 912 1900 
Q 700 1700 687 1400 
z
M 775 3350 
Q 775 3100 950 2875 
Q 1125 2650 1500 2650 
Q 1875 2650 2062 2875 
Q 2250 3100 2237 3412 
Q 2225 3725 2012 3875 
Q 1800 4025 1437 4000 
Q 1075 3975 925 3787 
Q 775 3600 775 3350 
z
" transform="scale(0.015625)"/>
       </defs>
       <use xlink:href="#SimHei-32"/>
       <use xlink:href="#SimHei-30" x="50"/>
       <use xlink:href="#SimHei-32" x="100"/>
       <use xlink:href="#SimHei-33" x="150"/>
       <use xlink:href="#SimHei-2d" x="200"/>
       <use xlink:href="#SimHei-30" x="250"/>
       <use xlink:href="#SimHei-38" x="300"/>
      </g>
     </g>
    </g>
    <g id="xtick_2">
     <g id="line2d_2">
      <g>
       <use xlink:href="#m92549b7b39" x="165.768831" y="252" style="stroke: #000000; stroke-width: 0.8"/>
      </g>
     </g>
     <g id="text_2">
      <!-- 2023-09 -->
      <g transform="translate(148.268831 272.375) scale(0.1 -0.1)">
       <defs>
        <path id="SimHei-39" d="M 800 75 
Q 1350 1000 1700 1750 
Q 1075 1650 662 1912 
Q 250 2175 162 2625 
Q 75 3075 175 3437 
Q 275 3800 487 4037 
Q 700 4275 1000 4375 
Q 1300 4475 1537 4475 
Q 1775 4475 2025 4375 
Q 2275 4275 2475 4075 
Q 2675 3875 2750 3662 
Q 2825 3450 2825 3112 
Q 2825 2775 2575 2250 
Q 2325 1725 1350 75 
L 800 75 
z
M 662 2875 
Q 700 2550 937 2337 
Q 1175 2125 1450 2150 
Q 1725 2175 1887 2300 
Q 2050 2425 2200 2725 
Q 2300 3100 2250 3362 
Q 2200 3625 1987 3800 
Q 1775 3975 1525 3975 
Q 1375 4000 1137 3900 
Q 900 3800 762 3500 
Q 625 3200 662 2875 
z
" transform="scale(0.015625)"/>
       </defs>
       <use xlink:href="#SimHei-32"/>
       <use xlink:href="#SimHei-30" x="50"/>
       <use xlink:href="#SimHei-32" x="100"/>
       <use xlink:href="#SimHei-33" x="150"/>
       <use xlink:href="#SimHei-2d" x="200"/>
       <use xlink:href="#SimHei-30" x="250"/>
       <use xlink:href="#SimHei-39" x="300"/>
      </g>
     </g>
    </g>
    <g id="xtick_3">
     <g id="line2d_3">
      <g>
       <use xlink:href="#m92549b7b39" x="267.457143" y="252" style="stroke: #000000; stroke-width: 0.8"/>
      </g>
     </g>
     <g id="text_3">
      <!-- 2023-10 -->
      <g transform="translate(249.957143 272.375) scale(0.1 -0.1)">
       <defs>
        <path id="SimHei-31" d="M 1400 3600 
Q 1075 3275 575 2975 
L 575 3450 
Q 1200 3875 1600 4450 
L 1900 4450 
L 1900 150 
L 1400 150 
L 1400 3600 
z
" transform="scale(0.015625)"/>
       </defs>
       <use xlink:href="#SimHei-32"/>
       <use xlink:href="#SimHei-30" x="50"/>
       <use xlink:href="#SimHei-32" x="100"/>
       <use xlink:href="#SimHei-33" x="150"/>
       <use xlink:href="#SimHei-2d" x="200"/>
       <use xlink:href="#SimHei-31" x="250"/>
       <use xlink:href="#SimHei-30" x="300"/>
      </g>
     </g>
    </g>
    <g id="xtick_4">
     <g id="line2d_4">
      <g>
       <use xlink:href="#m92549b7b39" x="372.535065" y="252" style="stroke: #000000; stroke-width: 0.8"/>
      </g>
     </g>
     <g id="text_4">
      <!-- 2023-11 -->
      <g transform="translate(355.035065 272.375) scale(0.1 -0.1)">
       <use xlink:href="#SimHei-32"/>
       <use xlink:href="#SimHei-30" x="50"/>
       <use xlink:href="#SimHei-32" x="100"/>
       <use xlink:href="#SimHei-33" x="150"/>
       <use xlink:href="#SimHei-2d" x="200"/>
       <use xlink:href="#SimHei-31" x="250"/>
       <use xlink:href="#SimHei-31" x="300"/>
      </g>
     </g>
    </g>
    <g id="xtick_5">
     <g id="line2d_5">
      <g>
       <use xlink:href="#m92549b7b39" x="474.223377" y="252" style="stroke: #000000; stroke-width: 0.8"/>
      </g>
     </g>
     <g id="text_5">
      <!-- 2023-12 -->
      <g transform="translate(456.723377 272.375) scale(0.1 -0.1)">
       <use xlink:href="#SimHei-32"/>
       <use xlink:href="#SimHei-30" x="50"/>
       <use xlink:href="#SimHei-32" x="100"/>
       <use xlink:href="#SimHei-33" x="150"/>
       <use xlink:href="#SimHei-2d" x="200"/>
       <use xlink:href="#SimHei-31" x="250"/>
       <use xlink:href="#SimHei-32" x="300"/>
      </g>
     </g>
    </g>
    <g id="xtick_6">
     <g id="line2d_6">
      <g>
       <use xlink:href="#m92549b7b39" x="579.301299" y="252" style="stroke: #000000; stroke-width: 0.8"/>
      </g>
     </g>
     <g id="text_6">
      <!-- 2024-01 -->
      <g transform="translate(561.801299 272.375) scale(0.1 -0.1)">
       <defs>
        <path id="SimHei-34" d="M 2000 1100 
L 75 1100 
L 75 1525 
L 2100 4450 
L 2475 4450 
L 2475 1525 
L 3075 1525 
L 3075 1100 
L 2475 1100 
L 2475 150 
L 2000 150 
L 2000 1100 
z
M 2000 1525 
L 2000 3500 
L 600 1525 
L 2000 1525 
z
" transform="scale(0.015625)"/>
       </defs>
       <use xlink:href="#SimHei-32"/>
       <use xlink:href="#SimHei-30" x="50"/>
       <use xlink:href="#SimHei-32" x="100"/>
       <use xlink:href="#SimHei-34" x="150"/>
       <use xlink:href="#SimHei-2d" x="200"/>
       <use xlink:href="#SimHei-30" x="250"/>
       <use xlink:href="#SimHei-31" x="300"/>
      </g>
     </g>
    </g>
    <g id="xtick_7">
     <g id="line2d_7">
      <g>
       <use xlink:href="#m92549b7b39" x="684.379221" y="252" style="stroke: #000000; stroke-width: 0.8"/>
      </g>
     </g>
     <g id="text_7">
      <!-- 2024-02 -->
      <g transform="translate(666.879221 272.375) scale(0.1 -0.1)">
       <use xlink:href="#SimHei-32"/>
       <use xlink:href="#SimHei-30" x="50"/>
       <use xlink:href="#SimHei-32" x="100"/>
       <use xlink:href="#SimHei-34" x="150"/>
       <use xlink:href="#SimHei-2d" x="200"/>
       <use xlink:href="#SimHei-30" x="250"/>
       <use xlink:href="#SimHei-32" x="300"/>
      </g>
     </g>
    </g>
   </g>
   <g id="matplotlib.axis_2">
    <g id="ytick_1">
     <g id="line2d_8">
      <path d="M 51.2 207.772284 
L 782 207.772284 
" clip-path="url(#p2b7ac4133c)" style="fill: none; stroke: #b0b0b0; stroke-width: 0.8; stroke-linecap: square"/>
     </g>
     <g id="line2d_9">
      <defs>
       <path id="me0420a1247" d="M 0 0 
L -3.5 0 
" style="stroke: #000000; stroke-width: 0.8"/>
      </defs>
      <g>
       <use xlink:href="#me0420a1247" x="51.2" y="207.772284" style="stroke: #000000; stroke-width: 0.8"/>
      </g>
     </g>
     <g id="text_8">
      <!-- 0.95 -->
      <g transform="translate(24.2 211.209784) scale(0.1 -0.1)">
       <defs>
        <path id="SimHei-2e" d="M 1075 125 
L 500 125 
L 500 675 
L 1075 675 
L 1075 125 
z
" transform="scale(0.015625)"/>
        <path id="SimHei-35" d="M 550 1325 
Q 725 650 1150 575 
Q 1575 500 1837 662 
Q 2100 825 2212 1087 
Q 2325 1350 2312 1675 
Q 2300 2000 2137 2225 
Q 1975 2450 1725 2525 
Q 1475 2600 1162 2525 
Q 850 2450 650 2175 
L 225 2225 
Q 275 2375 700 4375 
L 2675 4375 
L 2675 3925 
L 1075 3925 
Q 950 3250 825 2850 
Q 1200 3025 1525 3012 
Q 1850 3000 2150 2862 
Q 2450 2725 2587 2487 
Q 2725 2250 2787 2012 
Q 2850 1775 2837 1500 
Q 2825 1225 2725 937 
Q 2625 650 2425 462 
Q 2225 275 1937 162 
Q 1650 50 1275 75 
Q 900 100 562 350 
Q 225 600 100 1200 
L 550 1325 
z
" transform="scale(0.015625)"/>
       </defs>
       <use xlink:href="#SimHei-30"/>
       <use xlink:href="#SimHei-2e" x="50"/>
       <use xlink:href="#SimHei-39" x="100"/>
       <use xlink:href="#SimHei-35" x="150"/>
      </g>
     </g>
    </g>
    <g id="ytick_2">
     <g id="line2d_10">
      <path d="M 51.2 159.648669 
L 782 159.648669 
" clip-path="url(#p2b7ac4133c)" style="fill: none; stroke: #b0b0b0; stroke-width: 0.8; stroke-linecap: square"/>
     </g>
     <g id="line2d_11">
      <g>
       <use xlink:href="#me0420a1247" x="51.2" y="159.648669" style="stroke: #000000; stroke-width: 0.8"/>
      </g>
     </g>
     <g id="text_9">
      <!-- 1.00 -->
      <g transform="translate(24.2 163.086169) scale(0.1 -0.1)">
       <use xlink:href="#SimHei-31"/>
       <use xlink:href="#SimHei-2e" x="50"/>
       <use xlink:href="#SimHei-30" x="100"/>
       <use xlink:href="#SimHei-30" x="150"/>
      </g>
     </g>
    </g>
    <g id="ytick_3">
     <g id="line2d_12">
      <path d="M 51.2 111.525055 
L 782 111.525055 
" clip-path="url(#p2b7ac4133c)" style="fill: none; stroke: #b0b0b0; stroke-width: 0.8; stroke-linecap: square"/>
     </g>
     <g id="line2d_13">
      <g>
       <use xlink:href="#me0420a1247" x="51.2" y="111.525055" style="stroke: #000000; stroke-width: 0.8"/>
      </g>
     </g>
     <g id="text_10">
      <!-- 1.05 -->
      <g transform="translate(24.2 114.962555) scale(0.1 -0.1)">
       <use xlink:href="#SimHei-31"/>
       <use xlink:href="#SimHei-2e" x="50"/>
       <use xlink:href="#SimHei-30" x="100"/>
       <use xlink:href="#SimHei-35" x="150"/>
      </g>
     </g>
    </g>
    <g id="ytick_4">
     <g id="line2d_14">
      <path d="M 51.2 63.40144 
L 782 63.40144 
" clip-path="url(#p2b7ac4133c)" style="fill: none; stroke: #b0b0b0; stroke-width: 0.8; stroke-linecap: square"/>
     </g>
     <g id="line2d_15">
      <g>
       <use xlink:href="#me0420a1247" x="51.2" y="63.40144" style="stroke: #000000; stroke-width: 0.8"/>
      </g>
     </g>
     <g id="text_11">
      <!-- 1.10 -->
      <g transform="translate(24.2 66.83894) scale(0.1 -0.1)">
       <use xlink:href="#SimHei-31"/>
       <use xlink:href="#SimHei-2e" x="50"/>
       <use xlink:href="#SimHei-31" x="100"/>
       <use xlink:href="#SimHei-30" x="150"/>
      </g>
     </g>
    </g>
    <g id="ytick_5">
     <g id="line2d_16">
      <path d="M 51.2 15.277825 
L 782 15.277825 
" clip-path="url(#p2b7ac4133c)" style="fill: none; stroke: #b0b0b0; stroke-width: 0.8; stroke-linecap: square"/>
     </g>
     <g id="line2d_17">
      <g>
       <use xlink:href="#me0420a1247" x="51.2" y="15.277825" style="stroke: #000000; stroke-width: 0.8"/>
      </g>
     </g>
     <g id="text_12">
      <!-- 1.15 -->
      <g transform="translate(24.2 18.715325) scale(0.1 -0.1)">
       <use xlink:href="#SimHei-31"/>
       <use xlink:href="#SimHei-2e" x="50"/>
       <use xlink:href="#SimHei-31" x="100"/>
       <use xlink:href="#SimHei-35" x="150"/>
      </g>
     </g>
    </g>
    <g id="text_13">
     <!-- Portfolio Value -->
     <g transform="translate(18.2 189.6) rotate(-90) scale(0.16 -0.16)">
      <defs>
       <path id="SimHei-50" d="M 2950 3100 
Q 2950 2500 2600 2150 
Q 2250 1800 1625 1800 
L 900 1800 
L 900 125 
L 325 125 
L 325 4400 
L 1625 4400 
Q 2250 4400 2600 4050 
Q 2950 3700 2950 3100 
z
M 2375 3100 
Q 2375 3575 2150 3750 
Q 1925 3925 1475 3925 
L 900 3925 
L 900 2275 
L 1475 2275 
Q 1925 2275 2150 2450 
Q 2375 2625 2375 3100 
z
" transform="scale(0.015625)"/>
       <path id="SimHei-6f" d="M 2925 1525 
Q 2925 875 2525 475 
Q 2125 75 1575 75 
Q 1025 75 625 475 
Q 225 875 225 1525 
Q 225 2175 625 2575 
Q 1025 2975 1575 2975 
Q 2125 2975 2525 2575 
Q 2925 2175 2925 1525 
z
M 2375 1525 
Q 2375 2025 2125 2275 
Q 1875 2525 1575 2525 
Q 1275 2525 1025 2275 
Q 775 2025 775 1525 
Q 775 1025 1025 775 
Q 1275 525 1575 525 
Q 1875 525 2125 775 
Q 2375 1025 2375 1525 
z
" transform="scale(0.015625)"/>
       <path id="SimHei-72" d="M 2500 2425 
Q 2025 2500 1700 2287 
Q 1375 2075 1150 1550 
L 1150 125 
L 650 125 
L 650 2925 
L 1150 2925 
L 1150 2200 
Q 1375 2600 1712 2787 
Q 2050 2975 2500 2975 
L 2500 2425 
z
" transform="scale(0.015625)"/>
       <path id="SimHei-74" d="M 2750 200 
Q 2625 150 2462 112 
Q 2300 75 2025 75 
Q 1575 75 1300 325 
Q 1025 575 1025 1025 
L 1025 2525 
L 175 2525 
L 175 2925 
L 1025 2925 
L 1025 3900 
L 1525 3900 
L 1525 2925 
L 2550 2925 
L 2550 2525 
L 1525 2525 
L 1525 1000 
Q 1525 800 1625 662 
Q 1725 525 2000 525 
Q 2275 525 2450 575 
Q 2625 625 2750 700 
L 2750 200 
z
" transform="scale(0.015625)"/>
       <path id="SimHei-66" d="M 2850 3825 
Q 2725 3900 2550 3950 
Q 2375 4000 2100 4000 
Q 1825 4000 1725 3862 
Q 1625 3725 1625 3525 
L 1625 2925 
L 2650 2925 
L 2650 2525 
L 1625 2525 
L 1625 125 
L 1125 125 
L 1125 2525 
L 275 2525 
L 275 2925 
L 1125 2925 
L 1125 3500 
Q 1125 3950 1400 4200 
Q 1675 4450 2125 4450 
Q 2400 4450 2562 4412 
Q 2725 4375 2850 4325 
L 2850 3825 
z
" transform="scale(0.015625)"/>
       <path id="SimHei-6c" d="M 1825 125 
L 1325 125 
L 1325 4400 
L 1825 4400 
L 1825 125 
z
" transform="scale(0.015625)"/>
       <path id="SimHei-69" d="M 1800 3725 
L 1300 3725 
L 1300 4375 
L 1800 4375 
L 1800 3725 
z
M 1800 125 
L 1300 125 
L 1300 2925 
L 1800 2925 
L 1800 125 
z
" transform="scale(0.015625)"/>
       <path id="SimHei-20" transform="scale(0.015625)"/>
       <path id="SimHei-56" d="M 3050 4400 
L 1800 75 
L 1300 75 
L 50 4400 
L 650 4400 
L 1525 1125 
L 1575 1125 
L 2450 4400 
L 3050 4400 
z
" transform="scale(0.015625)"/>
       <path id="SimHei-61" d="M 2875 125 
L 2275 125 
Q 2225 175 2200 262 
Q 2175 350 2175 475 
Q 2000 275 1750 175 
Q 1500 75 1225 75 
Q 825 75 550 275 
Q 275 475 275 850 
Q 275 1225 525 1450 
Q 775 1675 1300 1750 
Q 1650 1800 1912 1875 
Q 2175 1950 2175 2075 
Q 2175 2225 2062 2375 
Q 1950 2525 1575 2525 
Q 1275 2525 1137 2412 
Q 1000 2300 950 2100 
L 400 2100 
Q 450 2500 762 2737 
Q 1075 2975 1575 2975 
Q 2125 2975 2400 2725 
Q 2675 2475 2675 2025 
L 2675 650 
Q 2675 500 2725 375 
Q 2775 250 2875 125 
z
M 2175 1050 
L 2175 1550 
Q 2025 1500 1887 1462 
Q 1750 1425 1425 1375 
Q 1050 1325 937 1200 
Q 825 1075 825 900 
Q 825 750 937 637 
Q 1050 525 1275 525 
Q 1500 525 1762 650 
Q 2025 775 2175 1050 
z
" transform="scale(0.015625)"/>
       <path id="SimHei-75" d="M 2800 125 
L 2300 125 
L 2300 650 
Q 2100 375 1862 225 
Q 1625 75 1250 75 
Q 800 75 575 325 
Q 350 575 350 950 
L 350 2925 
L 850 2925 
L 850 1125 
Q 850 825 1000 650 
Q 1150 475 1400 475 
Q 1725 475 2012 812 
Q 2300 1150 2300 1650 
L 2300 2925 
L 2800 2925 
L 2800 125 
z
" transform="scale(0.015625)"/>
       <path id="SimHei-65" d="M 2850 1075 
Q 2800 625 2450 350 
Q 2100 75 1625 75 
Q 1025 75 637 462 
Q 250 850 250 1525 
Q 250 2200 637 2587 
Q 1025 2975 1625 2975 
Q 2150 2975 2487 2637 
Q 2825 2300 2825 1525 
L 800 1525 
Q 800 975 1037 750 
Q 1275 525 1625 525 
Q 1900 525 2075 662 
Q 2250 800 2300 1075 
L 2850 1075 
z
M 2250 1925 
Q 2200 2275 2025 2412 
Q 1850 2550 1575 2550 
Q 1325 2550 1125 2412 
Q 925 2275 825 1925 
L 2250 1925 
z
" transform="scale(0.015625)"/>
      </defs>
      <use xlink:href="#SimHei-50"/>
      <use xlink:href="#SimHei-6f" x="50"/>
      <use xlink:href="#SimHei-72" x="100"/>
      <use xlink:href="#SimHei-74" x="150"/>
      <use xlink:href="#SimHei-66" x="200"/>
      <use xlink:href="#SimHei-6f" x="250"/>
      <use xlink:href="#SimHei-6c" x="300"/>
      <use xlink:href="#SimHei-69" x="350"/>
      <use xlink:href="#SimHei-6f" x="400"/>
      <use xlink:href="#SimHei-20" x="450"/>
      <use xlink:href="#SimHei-56" x="500"/>
      <use xlink:href="#SimHei-61" x="550"/>
      <use xlink:href="#SimHei-6c" x="600"/>
      <use xlink:href="#SimHei-75" x="650"/>
      <use xlink:href="#SimHei-65" x="700"/>
     </g>
    </g>
   </g>
   <g id="line2d_18">
    <path d="M 84.418182 162.05485 
L 87.807792 163.460758 
L 91.197403 162.403171 
L 94.587013 180.606297 
L 104.755844 185.577215 
L 108.145455 177.925623 
L 111.535065 184.372005 
L 114.924675 180.654512 
L 118.314286 182.598573 
L 128.483117 195.258387 
L 131.872727 187.072978 
L 135.262338 191.415762 
L 138.651948 196.771109 
L 142.041558 189.738925 
L 152.21039 185.555439 
L 155.6 189.719712 
L 158.98961 191.351809 
L 162.379221 190.263961 
L 165.768831 195.584099 
L 175.937662 186.154872 
L 182.716883 188.067667 
L 186.106494 193.615925 
L 189.496104 194.122462 
L 199.664935 187.176422 
L 203.054545 185.867035 
L 206.444156 186.946872 
L 209.833766 171.384813 
L 213.223377 177.729877 
L 223.392208 179.424412 
L 226.781818 176.728252 
L 230.171429 176.960385 
L 233.561039 183.33321 
L 236.950649 174.649847 
L 247.119481 175.219964 
L 250.509091 180.362336 
L 253.898701 187.598555 
L 257.288312 184.507964 
L 294.574026 176.060112 
L 297.963636 178.353501 
L 301.353247 180.417339 
L 304.742857 170.07863 
L 308.132468 170.011455 
L 318.301299 170.920401 
L 321.690909 163.66391 
L 325.080519 163.686111 
L 328.47013 181.326311 
L 331.85974 190.524273 
L 342.028571 196.338902 
L 345.418182 190.962894 
L 348.807792 203.644738 
L 352.197403 190.511426 
L 355.587013 191.104929 
L 365.755844 197.959246 
L 369.145455 193.690762 
L 372.535065 189.714586 
L 375.924675 185.373134 
L 379.314286 187.2545 
L 389.483117 197.870954 
L 392.872727 197.734235 
L 396.262338 198.403854 
L 399.651948 191.216969 
L 403.041558 194.55863 
L 413.21039 195.612592 
L 416.6 197.958741 
L 419.98961 190.343669 
L 423.379221 190.868422 
L 426.768831 195.110724 
L 436.937662 192.275056 
L 440.327273 190.298171 
L 443.716883 193.802844 
L 447.106494 194.019731 
L 450.496104 194.769 
L 460.664935 198.117658 
L 464.054545 199.780652 
L 467.444156 206.04948 
L 470.833766 194.902495 
L 474.223377 193.984947 
L 484.392208 196.923313 
L 487.781818 208.022395 
L 491.171429 213.716653 
L 494.561039 212.521766 
L 497.950649 210.319571 
L 508.119481 206.552476 
L 511.509091 196.69137 
L 514.898701 197.84048 
L 518.288312 198.267089 
L 521.677922 207.753151 
L 531.846753 201.343836 
L 535.236364 198.907307 
L 538.625974 196.037382 
L 542.015584 195.532089 
L 545.405195 193.910078 
L 555.574026 189.481455 
L 558.963636 190.928853 
L 562.353247 186.842697 
L 565.742857 186.036191 
L 569.132468 183.393181 
L 582.690909 178.183453 
L 586.080519 171.926962 
L 589.47013 169.697797 
L 592.85974 161.964451 
L 603.028571 173.668674 
L 606.418182 173.957182 
L 613.197403 184.698015 
L 616.587013 174.05039 
L 626.755844 170.572669 
L 630.145455 161.872382 
L 633.535065 174.537657 
L 636.924675 172.499335 
L 640.314286 170.28985 
L 650.483117 180.709617 
L 653.872727 179.653262 
L 657.262338 157.848152 
L 660.651948 139.962336 
L 664.041558 134.564512 
L 674.21039 119.925987 
L 677.6 131.563663 
L 680.98961 128.321709 
L 684.379221 136.72568 
L 687.768831 139.8317 
L 697.937662 116.525515 
L 701.327273 110.006887 
L 708.106494 117.822086 
L 745.392208 92.444342 
L 748.781818 82.979811 
L 748.781818 82.979811 
" clip-path="url(#p2b7ac4133c)" style="fill: none; stroke-dasharray: 9.6,2.4,1.5,2.4; stroke-dashoffset: 0; stroke: #1f77b4; stroke-opacity: 0.85; stroke-width: 1.5"/>
   </g>
   <g id="line2d_19">
    <path d="M 84.418182 162.05485 
L 87.807792 162.387809 
L 91.197403 161.458214 
L 94.587013 179.141471 
L 104.755844 185.776074 
L 108.145455 177.047619 
L 111.535065 183.858186 
L 114.924675 180.280122 
L 118.314286 179.893219 
L 128.483117 194.109577 
L 131.872727 188.041347 
L 135.262338 190.105429 
L 138.651948 194.299251 
L 142.041558 187.802308 
L 152.21039 184.289326 
L 155.6 190.104311 
L 158.98961 193.246422 
L 162.379221 193.181586 
L 165.768831 197.744136 
L 175.937662 188.896844 
L 179.327273 189.271271 
L 182.716883 188.737639 
L 186.106494 193.161569 
L 189.496104 194.732718 
L 199.664935 189.063739 
L 203.054545 187.370017 
L 206.444156 187.524034 
L 209.833766 170.651032 
L 213.223377 178.304268 
L 223.392208 178.224492 
L 226.781818 176.110493 
L 230.171429 174.392942 
L 233.561039 181.761703 
L 236.950649 174.419815 
L 247.119481 173.861669 
L 250.509091 178.642259 
L 253.898701 185.009711 
L 257.288312 183.425374 
L 294.574026 176.24373 
L 297.963636 178.37489 
L 301.353247 180.886704 
L 304.742857 168.6687 
L 308.132468 166.851946 
L 318.301299 167.326986 
L 321.690909 160.343803 
L 325.080519 160.089811 
L 328.47013 179.333908 
L 331.85974 188.453786 
L 342.028571 192.708073 
L 345.418182 186.94098 
L 348.807792 201.182556 
L 352.197403 188.390222 
L 355.587013 191.469176 
L 365.755844 199.875754 
L 369.145455 195.416004 
L 372.535065 191.970278 
L 375.924675 186.555662 
L 379.314286 187.201502 
L 389.483117 198.929174 
L 392.872727 198.539893 
L 396.262338 198.267317 
L 399.651948 191.258654 
L 403.041558 194.64313 
L 413.21039 195.955689 
L 416.6 198.993395 
L 419.98961 191.550936 
L 423.379221 191.635293 
L 426.768831 196.715342 
L 436.937662 194.759861 
L 440.327273 190.829694 
L 443.716883 194.01583 
L 447.106494 194.90574 
L 450.496104 194.878546 
L 460.664935 198.547144 
L 464.054545 200.531556 
L 467.444156 207.66811 
L 470.833766 197.072225 
L 474.223377 196.161444 
L 484.392208 200.961193 
L 487.781818 212.510808 
L 491.171429 219.110596 
L 494.561039 216.94429 
L 497.950649 212.48373 
L 508.119481 209.412643 
L 511.509091 200.997271 
L 514.898701 204.197043 
L 518.288312 206.332233 
L 521.677922 214.311203 
L 531.846753 209.148328 
L 535.236364 208.574292 
L 538.625974 204.048914 
L 542.015584 205.544453 
L 545.405195 204.676625 
L 555.574026 198.806675 
L 558.963636 200.888481 
L 562.353247 198.249297 
L 565.742857 195.282675 
L 569.132468 196.453277 
L 582.690909 191.117368 
L 586.080519 184.393751 
L 589.47013 181.576228 
L 592.85974 168.909241 
L 603.028571 182.012418 
L 606.418182 182.39443 
L 609.807792 186.904522 
L 613.197403 192.692455 
L 616.587013 181.128478 
L 626.755844 176.759883 
L 630.145455 166.375374 
L 633.535065 178.305758 
L 636.924675 175.677909 
L 640.314286 174.133279 
L 650.483117 185.302236 
L 653.872727 182.083839 
L 657.262338 159.937548 
L 660.651948 144.558505 
L 664.041558 137.256494 
L 674.21039 118.271125 
L 677.6 131.157867 
L 680.98961 125.221856 
L 684.379221 133.870763 
L 687.768831 137.326991 
L 697.937662 109.255847 
L 701.327273 106.944806 
L 704.716883 115.572641 
L 708.106494 121.144787 
L 745.392208 96.325927 
L 748.781818 86.083795 
L 748.781818 86.083795 
" clip-path="url(#p2b7ac4133c)" style="fill: none; stroke-dasharray: 9.6,2.4,1.5,2.4; stroke-dashoffset: 0; stroke: #ff7f0e; stroke-opacity: 0.85; stroke-width: 1.5"/>
   </g>
   <g id="line2d_20">
    <path d="M 84.418182 162.05485 
L 87.807792 163.843077 
L 91.197403 160.243024 
L 94.587013 178.476208 
L 104.755844 182.366609 
L 108.145455 177.32255 
L 111.535065 183.195817 
L 114.924675 179.018542 
L 118.314286 182.863184 
L 128.483117 198.894183 
L 131.872727 191.731657 
L 135.262338 198.197092 
L 138.651948 203.200384 
L 142.041558 197.814495 
L 152.21039 193.032969 
L 155.6 195.36153 
L 158.98961 199.449 
L 162.379221 200.223859 
L 165.768831 202.993222 
L 175.937662 191.375484 
L 179.327273 193.482456 
L 182.716883 197.016026 
L 186.106494 201.497143 
L 189.496104 202.296638 
L 199.664935 193.816959 
L 203.054545 192.909409 
L 206.444156 194.256506 
L 209.833766 180.216467 
L 213.223377 186.552979 
L 223.392208 186.167313 
L 226.781818 183.962087 
L 230.171429 183.846945 
L 233.561039 189.89092 
L 236.950649 181.222989 
L 247.119481 182.460029 
L 250.509091 187.841835 
L 253.898701 193.588958 
L 257.288312 191.055867 
L 294.574026 183.848376 
L 297.963636 187.518526 
L 301.353247 188.781038 
L 304.742857 179.36064 
L 308.132468 181.010365 
L 318.301299 180.693446 
L 321.690909 175.624318 
L 325.080519 178.326485 
L 328.47013 196.216367 
L 331.85974 204.549272 
L 342.028571 210.764005 
L 345.418182 206.162257 
L 348.807792 212.02961 
L 352.197403 200.853317 
L 355.587013 197.200211 
L 365.755844 202.48367 
L 369.145455 199.272902 
L 372.535065 195.315834 
L 375.924675 193.206945 
L 379.314286 194.88367 
L 389.483117 202.40003 
L 392.872727 202.883062 
L 396.262338 205.064113 
L 399.651948 198.958548 
L 403.041558 202.542741 
L 416.6 203.903356 
L 419.98961 196.547133 
L 423.379221 197.181089 
L 426.768831 200.052433 
L 436.937662 194.82518 
L 440.327273 193.599828 
L 443.716883 197.802067 
L 447.106494 196.624676 
L 450.496104 198.510659 
L 460.664935 201.451969 
L 464.054545 202.549265 
L 467.444156 208.52356 
L 470.833766 199.163971 
L 474.223377 201.078214 
L 484.392208 202.050332 
L 487.781818 213.644781 
L 491.171429 217.937851 
L 494.561039 217.38796 
L 508.119481 214.062989 
L 511.509091 202.050578 
L 518.288312 205.885035 
L 521.677922 213.848431 
L 531.846753 210.078177 
L 535.236364 208.680013 
L 538.625974 209.694676 
L 545.405195 206.81298 
L 555.574026 201.964066 
L 558.963636 203.921446 
L 562.353247 203.360312 
L 565.742857 200.748773 
L 569.132468 197.807704 
L 582.690909 193.373337 
L 586.080519 188.231444 
L 589.47013 187.62155 
L 592.85974 181.83086 
L 603.028571 192.508441 
L 606.418182 191.149256 
L 609.807792 195.930246 
L 613.197403 198.086263 
L 616.587013 187.392918 
L 626.755844 182.184739 
L 630.145455 174.187613 
L 633.535065 188.902258 
L 636.924675 188.687058 
L 640.314286 186.420436 
L 650.483117 200.078454 
L 653.872727 198.446975 
L 657.262338 174.560185 
L 660.651948 154.057332 
L 664.041558 148.33432 
L 674.21039 135.252522 
L 677.6 146.607506 
L 680.98961 149.103941 
L 684.379221 157.225137 
L 687.768831 160.113964 
L 697.937662 146.887168 
L 701.327273 136.336599 
L 704.716883 136.610465 
L 708.106494 137.512473 
L 745.392208 114.616084 
L 748.781818 106.166142 
L 748.781818 106.166142 
" clip-path="url(#p2b7ac4133c)" style="fill: none; stroke-dasharray: 9.6,2.4,1.5,2.4; stroke-dashoffset: 0; stroke: #2ca02c; stroke-opacity: 0.85; stroke-width: 1.5"/>
   </g>
   <g id="line2d_21">
    <path d="M 84.418182 162.05485 
L 87.807792 163.95167 
L 91.197403 160.383257 
L 94.587013 178.677666 
L 104.755844 183.458568 
L 108.145455 177.487864 
L 111.535065 183.982301 
L 114.924675 180.497596 
L 118.314286 183.887705 
L 128.483117 199.240409 
L 131.872727 191.59157 
L 135.262338 197.975883 
L 138.651948 202.874642 
L 142.041558 197.499662 
L 152.21039 193.294259 
L 155.6 194.937439 
L 158.98961 198.087355 
L 162.379221 197.938801 
L 165.768831 202.133597 
L 175.937662 191.806199 
L 179.327273 193.336403 
L 182.716883 195.526456 
L 186.106494 201.023163 
L 189.496104 201.089659 
L 199.664935 193.559971 
L 203.054545 192.433472 
L 206.444156 194.157175 
L 209.833766 179.827742 
L 213.223377 186.022477 
L 223.392208 187.358229 
L 226.781818 185.025644 
L 230.171429 185.654929 
L 233.561039 191.625698 
L 236.950649 182.971051 
L 247.119481 184.23434 
L 253.898701 196.807898 
L 257.288312 192.860945 
L 294.574026 185.725706 
L 297.963636 188.506754 
L 301.353247 190.271222 
L 304.742857 180.052851 
L 308.132468 181.825094 
L 318.301299 183.174225 
L 321.690909 177.158766 
L 325.080519 178.998275 
L 328.47013 196.002217 
L 331.85974 204.677803 
L 342.028571 211.351375 
L 345.418182 205.739234 
L 348.807792 214.632199 
L 352.197403 202.80545 
L 355.587013 199.581352 
L 365.755844 204.445029 
L 369.145455 201.191205 
L 372.535065 197.734932 
L 375.924675 195.436819 
L 379.314286 196.62855 
L 389.483117 204.68128 
L 392.872727 205.227828 
L 396.262338 206.944174 
L 399.651948 200.542068 
L 403.041558 204.28443 
L 413.21039 205.07798 
L 416.6 206.001947 
L 419.98961 198.977548 
L 423.379221 200.057482 
L 426.768831 203.358942 
L 436.937662 199.325502 
L 440.327273 198.368143 
L 443.716883 202.561806 
L 447.106494 201.73175 
L 450.496104 203.637014 
L 460.664935 206.231407 
L 464.054545 207.986108 
L 467.444156 213.888992 
L 470.833766 203.855807 
L 474.223377 203.323916 
L 484.392208 205.111843 
L 487.781818 216.878781 
L 491.171429 221.692438 
L 494.561039 221.507782 
L 497.950649 219.68572 
L 508.119481 216.697663 
L 511.509091 206.048298 
L 514.898701 207.452445 
L 518.288312 208.630159 
L 521.677922 217.293788 
L 531.846753 212.61255 
L 535.236364 210.258239 
L 538.625974 210.180796 
L 542.015584 208.609954 
L 545.405195 206.775488 
L 555.574026 202.653061 
L 558.963636 205.103749 
L 565.742857 199.921043 
L 569.132468 196.990236 
L 582.690909 193.104459 
L 586.080519 188.03599 
L 589.47013 187.526637 
L 592.85974 181.795984 
L 603.028571 193.476687 
L 606.418182 192.080351 
L 609.807792 197.118273 
L 613.197403 200.247891 
L 616.587013 190.195433 
L 626.755844 184.845166 
L 630.145455 176.525688 
L 633.535065 190.903016 
L 636.924675 189.200229 
L 640.314286 186.8 
L 650.483117 199.185396 
L 653.872727 198.42207 
L 657.262338 176.646247 
L 660.651948 156.616065 
L 664.041558 151.790769 
L 674.21039 138.183087 
L 677.6 150.845944 
L 680.98961 151.735977 
L 684.379221 159.899996 
L 687.768831 163.631115 
L 697.937662 147.587049 
L 701.327273 137.118878 
L 704.716883 138.261755 
L 708.106494 139.93705 
L 745.392208 116.405372 
L 748.781818 108.666849 
L 748.781818 108.666849 
" clip-path="url(#p2b7ac4133c)" style="fill: none; stroke-dasharray: 9.6,2.4,1.5,2.4; stroke-dashoffset: 0; stroke: #d62728; stroke-opacity: 0.85; stroke-width: 1.5"/>
   </g>
   <g id="line2d_22">
    <path d="M 84.418182 162.05485 
L 87.807792 165.767415 
L 91.197403 159.477137 
L 94.587013 179.360158 
L 104.755844 182.224998 
L 108.145455 177.95199 
L 111.535065 186.402799 
L 114.924675 181.636885 
L 118.314286 188.63705 
L 128.483117 202.126296 
L 131.872727 194.546502 
L 135.262338 204.65342 
L 138.651948 206.654489 
L 142.041558 201.314848 
L 152.21039 198.749452 
L 155.6 195.441766 
L 158.98961 193.920476 
L 162.379221 191.534503 
L 165.768831 198.423473 
L 175.937662 193.248826 
L 179.327273 191.292124 
L 182.716883 193.899014 
L 186.106494 201.180486 
L 189.496104 201.199504 
L 199.664935 193.764575 
L 203.054545 192.417813 
L 206.444156 194.775108 
L 209.833766 184.125984 
L 213.223377 189.362322 
L 223.392208 194.842505 
L 226.781818 193.316804 
L 230.171429 197.426115 
L 233.561039 204.111136 
L 236.950649 193.79573 
L 247.119481 194.550476 
L 250.509091 200.976757 
L 253.898701 208.183782 
L 257.288312 202.742862 
L 294.574026 194.291204 
L 297.963636 194.037712 
L 301.353247 194.46752 
L 304.742857 186.204815 
L 308.132468 189.759935 
L 318.301299 191.513766 
L 321.690909 184.984741 
L 325.080519 186.685347 
L 328.47013 199.300378 
L 331.85974 208.30821 
L 342.028571 216.095843 
L 345.418182 205.909752 
L 348.807792 212.646078 
L 352.197403 200.530574 
L 355.587013 193.932884 
L 365.755844 189.866702 
L 372.535065 184.505135 
L 375.924675 183.233238 
L 379.314286 183.46415 
L 389.483117 190.950368 
L 392.872727 191.56661 
L 396.262338 191.385859 
L 399.651948 186.196615 
L 403.041558 188.685094 
L 413.21039 191.703279 
L 416.6 195.709623 
L 419.98961 185.585665 
L 423.379221 187.029317 
L 426.768831 187.57038 
L 436.937662 183.006232 
L 440.327273 183.92742 
L 443.716883 188.876024 
L 447.106494 185.323659 
L 450.496104 187.698296 
L 460.664935 187.412295 
L 464.054545 189.971425 
L 467.444156 195.053062 
L 470.833766 187.8053 
L 474.223377 196.131237 
L 484.392208 196.388292 
L 487.781818 206.703967 
L 491.171429 210.031408 
L 494.561039 211.443681 
L 497.950649 209.545865 
L 508.119481 203.476873 
L 511.509091 198.553496 
L 514.898701 202.287597 
L 518.288312 203.762828 
L 521.677922 212.717482 
L 531.846753 208.297665 
L 535.236364 204.626072 
L 538.625974 204.22005 
L 542.015584 202.375704 
L 545.405195 201.020351 
L 555.574026 194.375912 
L 558.963636 195.777754 
L 562.353247 193.05887 
L 565.742857 191.783988 
L 569.132468 186.740654 
L 582.690909 183.078401 
L 586.080519 178.878525 
L 589.47013 180.531344 
L 592.85974 182.81651 
L 603.028571 192.767104 
L 606.418182 190.542946 
L 609.807792 197.290093 
L 613.197403 201.380673 
L 616.587013 193.123089 
L 626.755844 187.957311 
L 630.145455 180.968393 
L 633.535065 195.474668 
L 636.924675 189.510309 
L 640.314286 188.961581 
L 650.483117 201.689041 
L 653.872727 202.553495 
L 657.262338 181.941053 
L 660.651948 168.319744 
L 664.041558 166.166166 
L 674.21039 160.337856 
L 677.6 175.392427 
L 680.98961 173.295864 
L 684.379221 176.957859 
L 687.768831 179.668141 
L 697.937662 165.249884 
L 701.327273 148.378618 
L 704.716883 145.442833 
L 708.106494 143.203426 
L 745.392208 124.716442 
L 748.781818 115.008657 
L 748.781818 115.008657 
" clip-path="url(#p2b7ac4133c)" style="fill: none; stroke-dasharray: 9.6,2.4,1.5,2.4; stroke-dashoffset: 0; stroke: #9467bd; stroke-opacity: 0.85; stroke-width: 1.5"/>
   </g>
   <g id="line2d_23">
    <path d="M 84.418182 162.05485 
L 87.807792 165.181644 
L 91.197403 161.403325 
L 94.587013 182.233463 
L 104.755844 186.471038 
L 108.145455 183.007434 
L 111.535065 192.073948 
L 114.924675 184.780889 
L 118.314286 192.949714 
L 128.483117 204.862737 
L 131.872727 198.987822 
L 135.262338 208.583593 
L 138.651948 208.642046 
L 142.041558 202.035429 
L 152.21039 199.789299 
L 155.6 197.892496 
L 158.98961 193.730878 
L 162.379221 190.535182 
L 165.768831 195.972946 
L 175.937662 192.084683 
L 179.327273 188.900653 
L 182.716883 189.770748 
L 186.106494 199.346802 
L 189.496104 201.411966 
L 199.664935 193.916969 
L 203.054545 193.713753 
L 206.444156 198.235774 
L 209.833766 191.637418 
L 213.223377 196.836731 
L 223.392208 201.308846 
L 226.781818 201.65798 
L 230.171429 206.847383 
L 233.561039 213.818118 
L 236.950649 202.264088 
L 247.119481 201.529577 
L 250.509091 205.696452 
L 253.898701 212.613687 
L 257.288312 206.830803 
L 294.574026 197.288856 
L 297.963636 199.024937 
L 301.353247 199.515201 
L 304.742857 189.939376 
L 308.132468 193.949263 
L 318.301299 192.964258 
L 321.690909 187.123062 
L 325.080519 190.271276 
L 328.47013 202.856435 
L 331.85974 212.322039 
L 342.028571 221.607846 
L 345.418182 211.728708 
L 348.807792 213.170982 
L 352.197403 201.607401 
L 355.587013 195.124015 
L 365.755844 191.557836 
L 369.145455 189.940832 
L 372.535065 186.532126 
L 375.924675 186.733721 
L 379.314286 185.681262 
L 389.483117 191.236615 
L 392.872727 192.023018 
L 396.262338 193.21281 
L 399.651948 189.506616 
L 403.041558 191.540934 
L 413.21039 194.961096 
L 416.6 199.606319 
L 419.98961 189.979792 
L 423.379221 192.207273 
L 426.768831 193.484563 
L 436.937662 189.460785 
L 440.327273 190.818334 
L 443.716883 194.14161 
L 447.106494 191.580485 
L 450.496104 193.389962 
L 460.664935 193.561486 
L 464.054545 196.075351 
L 467.444156 200.56665 
L 470.833766 193.041425 
L 474.223377 203.972313 
L 484.392208 203.852119 
L 487.781818 213.700029 
L 491.171429 217.104799 
L 494.561039 216.508477 
L 497.950649 217.42801 
L 508.119481 210.709902 
L 511.509091 202.311224 
L 514.898701 207.458409 
L 518.288312 206.856697 
L 521.677922 215.805678 
L 531.846753 211.634221 
L 535.236364 207.766845 
L 538.625974 207.641127 
L 542.015584 205.10648 
L 545.405195 206.188796 
L 555.574026 199.572136 
L 558.963636 198.198944 
L 562.353247 196.702586 
L 565.742857 194.597826 
L 569.132468 188.372711 
L 582.690909 185.529339 
L 586.080519 180.105922 
L 589.47013 182.537399 
L 592.85974 186.034833 
L 603.028571 193.32493 
L 606.418182 193.763876 
L 609.807792 200.831336 
L 613.197403 204.155108 
L 616.587013 195.822267 
L 626.755844 195.047673 
L 630.145455 189.277391 
L 633.535065 201.949259 
L 636.924675 196.490012 
L 640.314286 196.363635 
L 650.483117 209.623145 
L 653.872727 209.258267 
L 657.262338 186.924005 
L 660.651948 174.905124 
L 664.041558 173.219528 
L 674.21039 171.133085 
L 677.6 183.765926 
L 680.98961 180.898186 
L 684.379221 183.634946 
L 687.768831 183.784793 
L 697.937662 167.331995 
L 701.327273 153.654187 
L 704.716883 150.84578 
L 708.106494 149.998515 
L 745.392208 129.377326 
L 748.781818 118.859656 
L 748.781818 118.859656 
" clip-path="url(#p2b7ac4133c)" style="fill: none; stroke-dasharray: 9.6,2.4,1.5,2.4; stroke-dashoffset: 0; stroke: #8c564b; stroke-opacity: 0.85; stroke-width: 1.5"/>
   </g>
   <g id="line2d_24">
    <path d="M 84.418182 162.05485 
L 87.807792 165.434413 
L 91.197403 159.759693 
L 94.587013 180.481239 
L 104.755844 182.796308 
L 108.145455 179.159571 
L 111.535065 186.780523 
L 114.924675 181.796938 
L 118.314286 189.330209 
L 128.483117 204.773931 
L 131.872727 197.780029 
L 135.262338 208.461592 
L 138.651948 211.54239 
L 142.041558 206.278977 
L 152.21039 202.651286 
L 155.6 199.5878 
L 158.98961 199.146031 
L 162.379221 198.317446 
L 165.768831 202.782298 
L 175.937662 195.059644 
L 179.327273 193.98976 
L 182.716883 198.094307 
L 186.106494 204.447704 
L 189.496104 205.440064 
L 199.664935 196.652639 
L 203.054545 196.255016 
L 206.444156 198.99904 
L 209.833766 188.803583 
L 213.223377 193.06057 
L 223.392208 197.906563 
L 226.781818 195.740153 
L 230.171429 199.279117 
L 233.561039 205.906977 
L 236.950649 194.681538 
L 247.119481 195.781042 
L 250.509091 200.894877 
L 253.898701 207.911016 
L 257.288312 203.395214 
L 294.574026 194.287277 
L 297.963636 195.353723 
L 301.353247 195.533715 
L 304.742857 187.957129 
L 308.132468 190.920754 
L 318.301299 191.083052 
L 321.690909 185.471953 
L 325.080519 187.6564 
L 328.47013 201.084057 
L 331.85974 210.037416 
L 342.028571 217.530731 
L 345.418182 209.055462 
L 348.807792 212.360378 
L 352.197403 200.735352 
L 355.587013 193.743407 
L 365.755844 190.017229 
L 369.145455 187.945741 
L 372.535065 184.720512 
L 375.924675 184.322293 
L 379.314286 184.222594 
L 389.483117 190.608077 
L 392.872727 191.362533 
L 396.262338 191.870316 
L 399.651948 187.233827 
L 403.041558 189.862315 
L 413.21039 192.621704 
L 416.6 195.590635 
L 419.98961 186.182999 
L 423.379221 188.336804 
L 426.768831 188.769255 
L 436.937662 183.873963 
L 440.327273 185.340243 
L 443.716883 190.925584 
L 447.106494 187.093251 
L 450.496104 189.883217 
L 460.664935 189.704038 
L 464.054545 191.357854 
L 467.444156 196.599397 
L 470.833766 189.95834 
L 474.223377 198.173483 
L 484.392208 198.249372 
L 487.781818 209.478453 
L 491.171429 212.692049 
L 494.561039 214.164294 
L 497.950649 213.09223 
L 508.119481 207.546639 
L 511.509091 200.445096 
L 514.898701 203.314061 
L 518.288312 204.836323 
L 521.677922 213.215612 
L 531.846753 209.939702 
L 535.236364 206.192715 
L 538.625974 207.449165 
L 542.015584 204.715585 
L 545.405195 203.864552 
L 555.574026 197.806305 
L 558.963636 199.313656 
L 562.353247 198.391997 
L 565.742857 196.372261 
L 569.132468 191.067837 
L 582.690909 188.321743 
L 586.080519 184.228561 
L 589.47013 186.146209 
L 592.85974 187.551322 
L 603.028571 197.038776 
L 606.418182 195.126883 
L 609.807792 201.539084 
L 613.197403 204.72215 
L 616.587013 196.769029 
L 626.755844 191.270992 
L 630.145455 184.904951 
L 633.535065 199.789311 
L 636.924675 194.569675 
L 640.314286 193.280707 
L 650.483117 206.620338 
L 653.872727 207.029521 
L 657.262338 185.821545 
L 660.651948 171.028823 
L 664.041558 168.391425 
L 674.21039 161.609632 
L 677.6 176.014593 
L 680.98961 175.656813 
L 684.379221 180.508422 
L 687.768831 183.152815 
L 697.937662 170.702324 
L 701.327273 154.073108 
L 704.716883 150.979352 
L 708.106494 149.065236 
L 745.392208 130.141593 
L 748.781818 121.322501 
L 748.781818 121.322501 
" clip-path="url(#p2b7ac4133c)" style="fill: none; stroke-dasharray: 9.6,2.4,1.5,2.4; stroke-dashoffset: 0; stroke: #e377c2; stroke-opacity: 0.85; stroke-width: 1.5"/>
   </g>
   <g id="line2d_25">
    <path d="M 84.418182 162.05485 
L 87.807792 165.561368 
L 91.197403 166.133611 
L 94.587013 185.991685 
L 104.755844 194.40689 
L 108.145455 189.921523 
L 111.535065 196.197735 
L 114.924675 197.439241 
L 118.314286 199.403728 
L 128.483117 211.716956 
L 131.872727 202.182792 
L 135.262338 205.139337 
L 138.651948 202.176208 
L 142.041558 204.399558 
L 152.21039 191.992405 
L 155.6 198.986936 
L 158.98961 198.562418 
L 162.379221 201.373453 
L 165.768831 204.830984 
L 175.937662 178.847585 
L 179.327273 190.128016 
L 182.716883 191.148538 
L 186.106494 195.500301 
L 189.496104 204.383015 
L 199.664935 198.044831 
L 203.054545 200.391333 
L 206.444156 205.214557 
L 209.833766 189.223483 
L 213.223377 198.643009 
L 223.392208 186.450088 
L 226.781818 192.638786 
L 230.171429 189.535937 
L 233.561039 198.395806 
L 236.950649 183.868739 
L 247.119481 186.2535 
L 250.509091 186.910029 
L 253.898701 189.454361 
L 257.288312 200.507843 
L 294.574026 196.585455 
L 297.963636 201.874643 
L 301.353247 205.137616 
L 304.742857 191.513356 
L 308.132468 197.752055 
L 318.301299 204.315301 
L 321.690909 203.13585 
L 325.080519 206.124899 
L 328.47013 223.150837 
L 331.85974 233.565748 
L 342.028571 238.21662 
L 345.418182 240.872727 
L 348.807792 199.881508 
L 352.197403 202.304085 
L 355.587013 193.760538 
L 365.755844 200.62048 
L 369.145455 197.222199 
L 372.535065 191.042859 
L 375.924675 188.386336 
L 379.314286 189.16731 
L 389.483117 187.746161 
L 392.872727 184.887901 
L 396.262338 189.533432 
L 403.041558 188.356227 
L 413.21039 198.843847 
L 416.6 199.776881 
L 419.98961 184.622024 
L 423.379221 186.032811 
L 426.768831 183.300744 
L 440.327273 178.06594 
L 443.716883 185.987678 
L 447.106494 176.021202 
L 450.496104 177.229718 
L 460.664935 176.282434 
L 464.054545 170.173314 
L 467.444156 176.674418 
L 470.833766 175.134329 
L 474.223377 210.28351 
L 484.392208 205.412143 
L 487.781818 211.394267 
L 494.561039 213.22972 
L 497.950649 214.896523 
L 508.119481 209.452551 
L 511.509091 203.631404 
L 514.898701 200.931782 
L 518.288312 211.167154 
L 521.677922 218.649644 
L 531.846753 215.254514 
L 535.236364 212.053476 
L 538.625974 214.975594 
L 545.405195 216.254052 
L 555.574026 206.084329 
L 558.963636 207.753154 
L 562.353247 205.979798 
L 565.742857 213.965904 
L 569.132468 208.855608 
L 582.690909 198.678775 
L 586.080519 196.546187 
L 589.47013 195.364718 
L 592.85974 197.830676 
L 603.028571 206.571148 
L 606.418182 204.889761 
L 609.807792 212.390162 
L 613.197403 214.689686 
L 616.587013 200.311272 
L 626.755844 195.817747 
L 630.145455 185.939539 
L 633.535065 199.534035 
L 636.924675 201.863334 
L 640.314286 205.867674 
L 650.483117 219.267074 
L 653.872727 217.558102 
L 657.262338 190.33612 
L 660.651948 178.772522 
L 664.041558 173.433741 
L 674.21039 172.929497 
L 677.6 181.710732 
L 680.98961 179.345866 
L 684.379221 181.361198 
L 687.768831 180.948613 
L 697.937662 163.173848 
L 701.327273 158.955946 
L 704.716883 159.765614 
L 708.106494 158.205435 
L 745.392208 140.738492 
L 748.781818 122.848901 
L 748.781818 122.848901 
" clip-path="url(#p2b7ac4133c)" style="fill: none; stroke-dasharray: 9.6,2.4,1.5,2.4; stroke-dashoffset: 0; stroke: #7f7f7f; stroke-opacity: 0.85; stroke-width: 1.5"/>
   </g>
   <g id="line2d_26">
    <path d="M 84.418182 162.05485 
L 87.807792 165.414588 
L 91.197403 166.513111 
L 94.587013 186.401841 
L 104.755844 194.646456 
L 108.145455 190.596157 
L 111.535065 195.973687 
L 114.924675 197.293441 
L 118.314286 198.904648 
L 128.483117 210.709671 
L 131.872727 201.118263 
L 135.262338 204.375582 
L 138.651948 201.344117 
L 142.041558 203.566591 
L 152.21039 191.151409 
L 155.6 198.243713 
L 158.98961 198.030601 
L 162.379221 201.18407 
L 165.768831 204.563428 
L 175.937662 178.64407 
L 179.327273 189.951976 
L 182.716883 191.176981 
L 186.106494 195.528608 
L 189.496104 204.500815 
L 199.664935 197.68144 
L 203.054545 200.018197 
L 206.444156 204.84345 
L 209.833766 188.846507 
L 213.223377 198.269872 
L 223.392208 186.072056 
L 226.781818 192.263385 
L 230.171429 189.159184 
L 233.561039 198.022625 
L 236.950649 183.489678 
L 247.119481 185.875411 
L 250.509091 186.482635 
L 253.898701 188.800773 
L 257.288312 200.293512 
L 294.574026 196.352497 
L 297.963636 202.484195 
L 301.353247 204.642751 
L 304.742857 191.008821 
L 308.132468 197.27899 
L 318.301299 202.889466 
L 321.690909 201.525268 
L 325.080519 204.396181 
L 328.47013 221.621304 
L 331.85974 232.000526 
L 342.028571 236.898011 
L 345.418182 239.612264 
L 348.807792 197.745954 
L 352.197403 200.208864 
L 355.587013 191.402224 
L 365.755844 196.040103 
L 369.145455 193.370856 
L 372.535065 186.873065 
L 375.924675 185.47745 
L 379.314286 185.65976 
L 389.483117 182.998688 
L 392.872727 180.370606 
L 396.262338 185.306581 
L 399.651948 185.53596 
L 403.041558 185.015648 
L 413.21039 195.471916 
L 416.6 195.455299 
L 419.98961 180.413731 
L 423.379221 183.269306 
L 426.768831 180.510176 
L 440.327273 175.175985 
L 443.716883 183.092878 
L 447.106494 173.05689 
L 450.496104 174.310982 
L 460.664935 173.363384 
L 464.054545 167.107055 
L 467.444156 173.771878 
L 470.833766 172.852449 
L 474.223377 208.922032 
L 484.392208 203.939185 
L 487.781818 211.288039 
L 491.171429 212.546993 
L 497.950649 216.520648 
L 508.119481 212.601429 
L 511.509091 205.025646 
L 514.898701 202.753237 
L 518.288312 213.898168 
L 521.677922 221.41012 
L 531.846753 218.934205 
L 535.236364 215.29979 
L 538.625974 220.889359 
L 542.015584 220.871818 
L 545.405195 221.474909 
L 555.574026 212.205594 
L 558.963636 214.42623 
L 562.353247 212.643731 
L 565.742857 220.243555 
L 569.132468 214.919175 
L 586.080519 203.222506 
L 589.47013 202.35578 
L 592.85974 205.200461 
L 603.028571 214.28601 
L 606.418182 213.251656 
L 609.807792 220.13548 
L 613.197403 223.006181 
L 616.587013 208.946262 
L 626.755844 204.135065 
L 630.145455 193.633671 
L 633.535065 207.472437 
L 636.924675 210.304324 
L 640.314286 214.48209 
L 650.483117 227.982433 
L 653.872727 226.239476 
L 657.262338 199.605806 
L 660.651948 185.32529 
L 664.041558 180.306674 
L 674.21039 177.249699 
L 677.6 185.771312 
L 680.98961 185.877321 
L 684.379221 189.085789 
L 687.768831 189.162233 
L 697.937662 171.65618 
L 701.327273 167.473766 
L 704.716883 168.884948 
L 708.106494 167.84971 
L 745.392208 150.061501 
L 748.781818 133.401033 
L 748.781818 133.401033 
" clip-path="url(#p2b7ac4133c)" style="fill: none; stroke-dasharray: 9.6,2.4,1.5,2.4; stroke-dashoffset: 0; stroke: #bcbd22; stroke-opacity: 0.85; stroke-width: 1.5"/>
   </g>
   <g id="line2d_27">
    <path d="M 84.418182 162.05485 
L 87.807792 166.071838 
L 91.197403 163.035972 
L 94.587013 184.254718 
L 104.755844 188.95088 
L 108.145455 186.206296 
L 111.535065 196.253543 
L 114.924675 189.543549 
L 118.314286 199.945524 
L 128.483117 209.039273 
L 131.872727 200.701922 
L 135.262338 212.431443 
L 138.651948 210.297772 
L 142.041558 205.620712 
L 152.21039 202.790996 
L 155.6 199.389463 
L 158.98961 194.22742 
L 162.379221 193.768777 
L 165.768831 198.881855 
L 175.937662 191.534498 
L 179.327273 192.249849 
L 182.716883 191.676491 
L 186.106494 205.67798 
L 189.496104 207.486947 
L 199.664935 199.032276 
L 203.054545 201.038679 
L 206.444156 204.930523 
L 209.833766 200.752213 
L 213.223377 206.329691 
L 223.392208 209.469127 
L 226.781818 211.792872 
L 230.171429 217.19044 
L 233.561039 223.529556 
L 236.950649 212.432686 
L 247.119481 213.520788 
L 250.509091 217.25436 
L 253.898701 222.911123 
L 257.288312 217.050231 
L 294.574026 203.163249 
L 297.963636 205.37326 
L 301.353247 207.308137 
L 304.742857 198.246664 
L 308.132468 204.099716 
L 318.301299 206.958628 
L 321.690909 200.387023 
L 325.080519 204.662961 
L 328.47013 217.735281 
L 331.85974 227.971613 
L 342.028571 238.152938 
L 345.418182 223.584746 
L 348.807792 222.406689 
L 352.197403 212.006459 
L 355.587013 206.165924 
L 365.755844 199.861209 
L 369.145455 199.483532 
L 372.535065 197.098132 
L 375.924675 199.335315 
L 379.314286 195.418917 
L 389.483117 199.751586 
L 392.872727 201.524891 
L 396.262338 201.833245 
L 399.651948 199.867647 
L 403.041558 202.49479 
L 413.21039 205.162052 
L 416.6 208.73801 
L 419.98961 202.573516 
L 423.379221 204.034786 
L 426.768831 207.876954 
L 436.937662 203.116722 
L 440.327273 204.155948 
L 443.716883 206.76217 
L 447.106494 206.861101 
L 450.496104 209.397866 
L 460.664935 211.668302 
L 464.054545 213.041203 
L 467.444156 217.572222 
L 470.833766 210.467924 
L 474.223377 217.722106 
L 484.392208 219.88965 
L 487.781818 231.436348 
L 491.171429 235.068437 
L 494.561039 234.334183 
L 497.950649 234.954042 
L 508.119481 228.309212 
L 511.509091 218.653005 
L 514.898701 222.976002 
L 518.288312 222.430891 
L 521.677922 230.102597 
L 531.846753 227.592783 
L 535.236364 223.248608 
L 538.625974 223.692804 
L 542.015584 220.361595 
L 545.405195 222.60326 
L 555.574026 216.740942 
L 558.963636 215.14745 
L 562.353247 216.025123 
L 565.742857 211.194252 
L 569.132468 205.118765 
L 582.690909 203.831839 
L 586.080519 199.064845 
L 589.47013 201.835207 
L 592.85974 205.155716 
L 603.028571 211.453909 
L 606.418182 214.253236 
L 609.807792 221.19391 
L 613.197403 222.415475 
L 616.587013 215.595333 
L 626.755844 214.82744 
L 630.145455 210.015036 
L 633.535065 222.359408 
L 636.924675 216.425645 
L 640.314286 214.586225 
L 650.483117 227.885062 
L 653.872727 226.959414 
L 657.262338 203.335257 
L 660.651948 193.004182 
L 664.041558 190.81537 
L 674.21039 188.553518 
L 677.6 200.100637 
L 680.98961 198.883677 
L 684.379221 202.140845 
L 687.768831 201.210851 
L 697.937662 188.483406 
L 701.327273 175.688469 
L 704.716883 172.343306 
L 708.106494 171.345527 
L 745.392208 150.725658 
L 748.781818 142.354562 
L 748.781818 142.354562 
" clip-path="url(#p2b7ac4133c)" style="fill: none; stroke-dasharray: 9.6,2.4,1.5,2.4; stroke-dashoffset: 0; stroke: #17becf; stroke-opacity: 0.85; stroke-width: 1.5"/>
   </g>
   <g id="line2d_28">
    <path d="M 84.418182 162.05485 
L 87.807792 166.316637 
L 91.197403 158.086284 
L 94.587013 179.077717 
L 104.755844 181.418448 
L 108.145455 179.88263 
L 111.535065 188.698589 
L 114.924675 184.101379 
L 118.314286 194.168195 
L 128.483117 208.808925 
L 131.872727 200.596908 
L 135.262338 213.899994 
L 138.651948 213.798757 
L 142.041558 212.435385 
L 152.21039 206.856588 
L 155.6 200.698124 
L 158.98961 199.494366 
L 162.379221 199.835105 
L 165.768831 202.690918 
L 175.937662 189.916767 
L 179.327273 191.429939 
L 182.716883 194.747645 
L 186.106494 204.434595 
L 189.496104 205.94965 
L 199.664935 197.008899 
L 203.054545 197.42346 
L 206.444156 202.78853 
L 209.833766 196.503792 
L 213.223377 201.26672 
L 223.392208 204.025336 
L 226.781818 204.366625 
L 230.171429 208.55433 
L 233.561039 214.852202 
L 236.950649 202.113841 
L 247.119481 203.297803 
L 250.509091 208.819818 
L 253.898701 214.924707 
L 257.288312 209.928877 
L 294.574026 202.466285 
L 297.963636 204.142495 
L 301.353247 203.126735 
L 304.742857 192.632414 
L 308.132468 197.535753 
L 318.301299 197.900609 
L 321.690909 193.92386 
L 325.080519 197.51609 
L 328.47013 210.218285 
L 331.85974 219.406294 
L 342.028571 227.48502 
L 345.418182 219.825386 
L 348.807792 215.871223 
L 352.197403 207.406686 
L 355.587013 195.668061 
L 365.755844 192.804368 
L 369.145455 192.085117 
L 372.535065 189.642036 
L 375.924675 190.633162 
L 379.314286 189.804206 
L 389.483117 191.426585 
L 392.872727 192.880585 
L 396.262338 194.631959 
L 399.651948 191.609258 
L 403.041558 194.580993 
L 413.21039 198.057534 
L 416.6 199.429201 
L 419.98961 190.852322 
L 423.379221 194.574497 
L 426.768831 195.0226 
L 436.937662 189.976709 
L 440.327273 191.918191 
L 443.716883 198.205849 
L 447.106494 192.829106 
L 450.496104 197.28669 
L 460.664935 196.51813 
L 464.054545 196.710771 
L 467.444156 202.786026 
L 470.833766 198.747461 
L 474.223377 208.44531 
L 484.392208 209.155451 
L 487.781818 221.891519 
L 491.171429 224.995486 
L 494.561039 227.309629 
L 497.950649 226.117186 
L 508.119481 220.995453 
L 511.509091 213.10235 
L 518.288312 218.308519 
L 521.677922 226.462949 
L 531.846753 225.755096 
L 535.236364 220.05206 
L 538.625974 224.589568 
L 542.015584 219.213235 
L 545.405195 219.654103 
L 555.574026 214.289167 
L 558.963636 217.471302 
L 562.353247 214.638677 
L 569.132468 202.225272 
L 582.690909 202.769514 
L 586.080519 198.198259 
L 589.47013 200.759304 
L 592.85974 201.839575 
L 603.028571 212.002767 
L 606.418182 210.143455 
L 609.807792 216.325553 
L 613.197403 217.401395 
L 616.587013 211.737621 
L 626.755844 205.294127 
L 630.145455 197.445475 
L 633.535065 213.675828 
L 636.924675 207.297483 
L 640.314286 208.84805 
L 650.483117 223.73069 
L 653.872727 223.591933 
L 657.262338 202.142536 
L 660.651948 184.533169 
L 664.041558 182.520527 
L 674.21039 175.836909 
L 677.6 191.532194 
L 680.98961 195.063028 
L 684.379221 199.054568 
L 687.768831 203.43833 
L 697.937662 194.509305 
L 701.327273 173.953441 
L 704.716883 170.471965 
L 708.106494 167.744082 
L 745.392208 149.497819 
L 748.781818 141.93155 
L 748.781818 141.93155 
" clip-path="url(#p2b7ac4133c)" style="fill: none; stroke-dasharray: 9.6,2.4,1.5,2.4; stroke-dashoffset: 0; stroke: #1f77b4; stroke-opacity: 0.85; stroke-width: 1.5"/>
   </g>
   <g id="line2d_29">
    <path d="M 84.418182 161.784095 
L 87.807792 150.658372 
L 91.197403 146.0574 
L 94.587013 139.102423 
L 104.755844 125.321043 
L 108.145455 120.439445 
L 111.535065 121.630824 
L 114.924675 120.825092 
L 118.314286 124.064771 
L 128.483117 120.583599 
L 131.872727 117.88244 
L 135.262338 120.885574 
L 138.651948 121.822937 
L 142.041558 121.958453 
L 152.21039 124.954914 
L 155.6 128.192056 
L 158.98961 129.124223 
L 162.379221 124.04581 
L 165.768831 130.124275 
L 175.937662 131.218417 
L 179.327273 126.610134 
L 182.716883 129.171146 
L 186.106494 136.425106 
L 189.496104 130.965604 
L 199.664935 137.069505 
L 203.054545 135.607651 
L 206.444156 134.735195 
L 209.833766 142.345422 
L 213.223377 142.149662 
L 223.392208 153.270757 
L 226.781818 155.489682 
L 230.171429 170.546328 
L 233.561039 173.521538 
L 236.950649 178.182062 
L 247.119481 176.03296 
L 250.509091 170.228737 
L 253.898701 162.361825 
L 257.288312 167.346839 
L 294.574026 170.490402 
L 297.963636 176.309844 
L 301.353247 180.929292 
L 304.742857 172.525709 
L 308.132468 179.799341 
L 318.301299 170.568024 
L 321.690909 174.212033 
L 325.080519 169.977773 
L 328.47013 174.788794 
L 331.85974 170.646454 
L 342.028571 157.794199 
L 345.418182 151.61657 
L 348.807792 157.661931 
L 352.197403 153.683343 
L 355.587013 159.025177 
L 365.755844 161.835008 
L 369.145455 172.160248 
L 372.535065 170.143512 
L 375.924675 175.49049 
L 379.314286 172.164018 
L 389.483117 170.400995 
L 392.872727 163.679894 
L 396.262338 153.553131 
L 399.651948 169.574442 
L 403.041558 157.903134 
L 413.21039 161.52548 
L 416.6 176.128382 
L 419.98961 175.820496 
L 423.379221 156.085046 
L 426.768831 138.488378 
L 436.937662 142.482116 
L 440.327273 141.114956 
L 443.716883 160.090301 
L 447.106494 169.012236 
L 450.496104 165.879777 
L 460.664935 172.451937 
L 464.054545 166.202291 
L 467.444156 138.403018 
L 474.223377 127.857796 
L 484.392208 109.91024 
L 487.781818 107.722435 
L 491.171429 103.267434 
L 494.561039 94.866852 
L 497.950649 94.147117 
L 508.119481 101.270954 
L 511.509091 91.355328 
L 514.898701 102.684987 
L 518.288312 78.214194 
L 521.677922 78.654313 
L 531.846753 67.222268 
L 535.236364 61.453204 
L 538.625974 63.254546 
L 542.015584 68.350316 
L 545.405195 61.197103 
L 555.574026 59.541747 
L 558.963636 68.472674 
L 562.353247 72.153887 
L 565.742857 72.264674 
L 569.132468 72.034103 
L 582.690909 55.131079 
L 586.080519 68.735178 
L 589.47013 58.338584 
L 592.85974 59.173882 
L 603.028571 57.880017 
L 606.418182 59.905659 
L 609.807792 64.486349 
L 613.197403 77.580184 
L 616.587013 72.197398 
L 626.755844 63.696319 
L 630.145455 53.985198 
L 633.535065 58.578732 
L 636.924675 61.243628 
L 640.314286 51.255534 
L 650.483117 57.004967 
L 653.872727 59.572208 
L 657.262338 51.710921 
L 660.651948 55.934875 
L 664.041558 28.469707 
L 674.21039 39.841981 
L 677.6 22.615418 
L 680.98961 18.327273 
L 684.379221 29.0286 
L 687.768831 32.626715 
L 697.937662 41.875182 
L 701.327273 32.240773 
L 704.716883 33.503363 
L 708.106494 33.629386 
L 745.392208 28.580513 
L 748.781818 38.679157 
L 748.781818 38.679157 
" clip-path="url(#p2b7ac4133c)" style="fill: none; stroke: #000000; stroke-width: 1.5; stroke-linecap: square"/>
   </g>
   <g id="patch_3">
    <path d="M 51.2 252 
L 51.2 7.2 
" style="fill: none; stroke: #000000; stroke-width: 0.8; stroke-linejoin: miter; stroke-linecap: square"/>
   </g>
   <g id="patch_4">
    <path d="M 782 252 
L 782 7.2 
" style="fill: none; stroke: #000000; stroke-width: 0.8; stroke-linejoin: miter; stroke-linecap: square"/>
   </g>
   <g id="patch_5">
    <path d="M 51.2 252 
L 782 252 
" style="fill: none; stroke: #000000; stroke-width: 0.8; stroke-linejoin: miter; stroke-linecap: square"/>
   </g>
   <g id="patch_6">
    <path d="M 51.2 7.2 
L 782 7.2 
" style="fill: none; stroke: #000000; stroke-width: 0.8; stroke-linejoin: miter; stroke-linecap: square"/>
   </g>
   <g id="legend_1">
    <g id="patch_7">
     <path d="M 802.216 194.7125 
L 891.816 194.7125 
Q 893.416 194.7125 893.416 193.1125 
L 893.416 66.0875 
Q 893.416 64.4875 891.816 64.4875 
L 802.216 64.4875 
Q 800.616 64.4875 800.616 66.0875 
L 800.616 193.1125 
Q 800.616 194.7125 802.216 194.7125 
z
" style="fill: #ffffff; opacity: 0.8; stroke: #cccccc; stroke-linejoin: miter"/>
    </g>
    <g id="line2d_30">
     <path d="M 803.816 70.4875 
L 811.816 70.4875 
L 819.816 70.4875 
" style="fill: none; stroke-dasharray: 9.6,2.4,1.5,2.4; stroke-dashoffset: 0; stroke: #1f77b4; stroke-opacity: 0.85; stroke-width: 1.5"/>
    </g>
    <g id="text_14">
     <!-- CVaR_MinRisk_4yr -->
     <g transform="translate(826.216 73.2875) scale(0.08 -0.08)">
      <defs>
       <path id="SimHei-43" d="M 2975 1825 
Q 2950 875 2575 475 
Q 2200 75 1675 75 
Q 1075 75 650 562 
Q 225 1050 225 2125 
Q 225 3300 637 3875 
Q 1050 4450 1700 4450 
Q 2250 4450 2612 4037 
Q 2975 3625 2950 2875 
L 2400 2875 
Q 2400 3425 2225 3700 
Q 2050 3975 1700 3975 
Q 1300 3975 1062 3562 
Q 825 3150 825 2175 
Q 825 1275 1062 912 
Q 1300 550 1675 550 
Q 1950 550 2175 812 
Q 2400 1075 2400 1825 
L 2975 1825 
z
" transform="scale(0.015625)"/>
       <path id="SimHei-52" d="M 3000 125 
L 2400 125 
L 1500 1975 
L 850 1975 
L 850 125 
L 275 125 
L 275 4400 
L 1525 4400 
Q 2125 4400 2500 4112 
Q 2875 3825 2875 3175 
Q 2875 2675 2625 2400 
Q 2375 2125 2050 2050 
L 3000 125 
z
M 2300 3175 
Q 2300 3525 2087 3725 
Q 1875 3925 1400 3925 
L 850 3925 
L 850 2450 
L 1550 2450 
Q 1850 2450 2075 2612 
Q 2300 2775 2300 3175 
z
" transform="scale(0.015625)"/>
       <path id="SimHei-5f" d="M 3150 -850 
L 0 -850 
L 0 -550 
L 3150 -550 
L 3150 -850 
z
" transform="scale(0.015625)"/>
       <path id="SimHei-4d" d="M 2925 125 
L 2425 125 
L 2425 3175 
L 2375 3175 
L 1775 125 
L 1375 125 
L 775 3175 
L 725 3175 
L 725 125 
L 225 125 
L 225 4400 
L 1000 4400 
L 1550 1575 
L 1600 1575 
L 2150 4400 
L 2925 4400 
L 2925 125 
z
" transform="scale(0.015625)"/>
       <path id="SimHei-6e" d="M 2800 125 
L 2300 125 
L 2300 1925 
Q 2300 2225 2150 2400 
Q 2000 2575 1750 2575 
Q 1425 2575 1137 2237 
Q 850 1900 850 1400 
L 850 125 
L 350 125 
L 350 2925 
L 850 2925 
L 850 2400 
Q 1050 2675 1287 2825 
Q 1525 2975 1900 2975 
Q 2350 2975 2575 2725 
Q 2800 2475 2800 2100 
L 2800 125 
z
" transform="scale(0.015625)"/>
       <path id="SimHei-73" d="M 2750 900 
Q 2750 500 2437 287 
Q 2125 75 1650 75 
Q 1050 75 725 312 
Q 400 550 400 1000 
L 900 1000 
Q 900 700 1112 600 
Q 1325 500 1625 500 
Q 1925 500 2075 612 
Q 2225 725 2225 900 
Q 2225 1025 2100 1150 
Q 1975 1275 1475 1350 
Q 900 1425 687 1637 
Q 475 1850 475 2200 
Q 475 2500 762 2737 
Q 1050 2975 1600 2975 
Q 2100 2975 2387 2750 
Q 2675 2525 2675 2150 
L 2175 2150 
Q 2175 2375 2012 2462 
Q 1850 2550 1600 2550 
Q 1275 2550 1137 2437 
Q 1000 2325 1000 2175 
Q 1000 2000 1125 1900 
Q 1250 1800 1650 1750 
Q 2300 1650 2525 1437 
Q 2750 1225 2750 900 
z
" transform="scale(0.015625)"/>
       <path id="SimHei-6b" d="M 2925 125 
L 2350 125 
L 1450 1650 
L 875 1100 
L 875 125 
L 375 125 
L 375 4400 
L 875 4400 
L 875 1675 
L 2125 2925 
L 2750 2925 
L 1775 1975 
L 2925 125 
z
" transform="scale(0.015625)"/>
       <path id="SimHei-79" d="M 2900 2925 
L 1750 -100 
Q 1650 -450 1450 -625 
Q 1250 -800 950 -800 
Q 825 -800 712 -787 
Q 600 -775 500 -725 
L 500 -225 
Q 600 -275 700 -300 
Q 800 -325 875 -325 
Q 1075 -325 1150 -262 
Q 1225 -200 1300 25 
L 200 2925 
L 750 2925 
L 1550 725 
L 1575 725 
L 2350 2925 
L 2900 2925 
z
" transform="scale(0.015625)"/>
      </defs>
      <use xlink:href="#SimHei-43"/>
      <use xlink:href="#SimHei-56" x="50"/>
      <use xlink:href="#SimHei-61" x="100"/>
      <use xlink:href="#SimHei-52" x="150"/>
      <use xlink:href="#SimHei-5f" x="200"/>
      <use xlink:href="#SimHei-4d" x="250"/>
      <use xlink:href="#SimHei-69" x="300"/>
      <use xlink:href="#SimHei-6e" x="350"/>
      <use xlink:href="#SimHei-52" x="400"/>
      <use xlink:href="#SimHei-69" x="450"/>
      <use xlink:href="#SimHei-73" x="500"/>
      <use xlink:href="#SimHei-6b" x="550"/>
      <use xlink:href="#SimHei-5f" x="600"/>
      <use xlink:href="#SimHei-34" x="650"/>
      <use xlink:href="#SimHei-79" x="700"/>
      <use xlink:href="#SimHei-72" x="750"/>
     </g>
    </g>
    <g id="line2d_31">
     <path d="M 803.816 81.15 
L 811.816 81.15 
L 819.816 81.15 
" style="fill: none; stroke-dasharray: 9.6,2.4,1.5,2.4; stroke-dashoffset: 0; stroke: #ff7f0e; stroke-opacity: 0.85; stroke-width: 1.5"/>
    </g>
    <g id="text_15">
     <!-- EVaR_MinRisk_4yr -->
     <g transform="translate(826.216 83.95) scale(0.08 -0.08)">
      <defs>
       <path id="SimHei-45" d="M 2900 125 
L 350 125 
L 350 4400 
L 2775 4400 
L 2775 3925 
L 925 3925 
L 925 2600 
L 2625 2600 
L 2625 2125 
L 925 2125 
L 925 600 
L 2900 600 
L 2900 125 
z
" transform="scale(0.015625)"/>
      </defs>
      <use xlink:href="#SimHei-45"/>
      <use xlink:href="#SimHei-56" x="50"/>
      <use xlink:href="#SimHei-61" x="100"/>
      <use xlink:href="#SimHei-52" x="150"/>
      <use xlink:href="#SimHei-5f" x="200"/>
      <use xlink:href="#SimHei-4d" x="250"/>
      <use xlink:href="#SimHei-69" x="300"/>
      <use xlink:href="#SimHei-6e" x="350"/>
      <use xlink:href="#SimHei-52" x="400"/>
      <use xlink:href="#SimHei-69" x="450"/>
      <use xlink:href="#SimHei-73" x="500"/>
      <use xlink:href="#SimHei-6b" x="550"/>
      <use xlink:href="#SimHei-5f" x="600"/>
      <use xlink:href="#SimHei-34" x="650"/>
      <use xlink:href="#SimHei-79" x="700"/>
      <use xlink:href="#SimHei-72" x="750"/>
     </g>
    </g>
    <g id="line2d_32">
     <path d="M 803.816 91.8125 
L 811.816 91.8125 
L 819.816 91.8125 
" style="fill: none; stroke-dasharray: 9.6,2.4,1.5,2.4; stroke-dashoffset: 0; stroke: #2ca02c; stroke-opacity: 0.85; stroke-width: 1.5"/>
    </g>
    <g id="text_16">
     <!-- NCO_MinRisk_4yr -->
     <g transform="translate(826.216 94.6125) scale(0.08 -0.08)">
      <defs>
       <path id="SimHei-4e" d="M 2850 125 
L 2225 125 
L 850 3225 
L 825 3225 
L 825 125 
L 250 125 
L 250 4400 
L 875 4400 
L 2250 1300 
L 2275 1300 
L 2275 4400 
L 2850 4400 
L 2850 125 
z
" transform="scale(0.015625)"/>
       <path id="SimHei-4f" d="M 2950 2275 
Q 2950 1100 2587 587 
Q 2225 75 1575 75 
Q 925 75 550 587 
Q 175 1100 175 2275 
Q 175 3450 550 3950 
Q 925 4450 1575 4450 
Q 2225 4450 2587 3950 
Q 2950 3450 2950 2275 
z
M 2350 2275 
Q 2350 3325 2125 3650 
Q 1900 3975 1575 3975 
Q 1250 3975 1012 3650 
Q 775 3325 775 2275 
Q 775 1225 1012 887 
Q 1250 550 1575 550 
Q 1900 550 2125 887 
Q 2350 1225 2350 2275 
z
" transform="scale(0.015625)"/>
      </defs>
      <use xlink:href="#SimHei-4e"/>
      <use xlink:href="#SimHei-43" x="50"/>
      <use xlink:href="#SimHei-4f" x="100"/>
      <use xlink:href="#SimHei-5f" x="150"/>
      <use xlink:href="#SimHei-4d" x="200"/>
      <use xlink:href="#SimHei-69" x="250"/>
      <use xlink:href="#SimHei-6e" x="300"/>
      <use xlink:href="#SimHei-52" x="350"/>
      <use xlink:href="#SimHei-69" x="400"/>
      <use xlink:href="#SimHei-73" x="450"/>
      <use xlink:href="#SimHei-6b" x="500"/>
      <use xlink:href="#SimHei-5f" x="550"/>
      <use xlink:href="#SimHei-34" x="600"/>
      <use xlink:href="#SimHei-79" x="650"/>
      <use xlink:href="#SimHei-72" x="700"/>
     </g>
    </g>
    <g id="line2d_33">
     <path d="M 803.816 102.475 
L 811.816 102.475 
L 819.816 102.475 
" style="fill: none; stroke-dasharray: 9.6,2.4,1.5,2.4; stroke-dashoffset: 0; stroke: #d62728; stroke-opacity: 0.85; stroke-width: 1.5"/>
    </g>
    <g id="text_17">
     <!-- MV_MinRisk_4yr -->
     <g transform="translate(826.216 105.275) scale(0.08 -0.08)">
      <use xlink:href="#SimHei-4d"/>
      <use xlink:href="#SimHei-56" x="50"/>
      <use xlink:href="#SimHei-5f" x="100"/>
      <use xlink:href="#SimHei-4d" x="150"/>
      <use xlink:href="#SimHei-69" x="200"/>
      <use xlink:href="#SimHei-6e" x="250"/>
      <use xlink:href="#SimHei-52" x="300"/>
      <use xlink:href="#SimHei-69" x="350"/>
      <use xlink:href="#SimHei-73" x="400"/>
      <use xlink:href="#SimHei-6b" x="450"/>
      <use xlink:href="#SimHei-5f" x="500"/>
      <use xlink:href="#SimHei-34" x="550"/>
      <use xlink:href="#SimHei-79" x="600"/>
      <use xlink:href="#SimHei-72" x="650"/>
     </g>
    </g>
    <g id="line2d_34">
     <path d="M 803.816 113.1375 
L 811.816 113.1375 
L 819.816 113.1375 
" style="fill: none; stroke-dasharray: 9.6,2.4,1.5,2.4; stroke-dashoffset: 0; stroke: #9467bd; stroke-opacity: 0.85; stroke-width: 1.5"/>
    </g>
    <g id="text_18">
     <!-- MV_MinRisk -->
     <g transform="translate(826.216 115.9375) scale(0.08 -0.08)">
      <use xlink:href="#SimHei-4d"/>
      <use xlink:href="#SimHei-56" x="50"/>
      <use xlink:href="#SimHei-5f" x="100"/>
      <use xlink:href="#SimHei-4d" x="150"/>
      <use xlink:href="#SimHei-69" x="200"/>
      <use xlink:href="#SimHei-6e" x="250"/>
      <use xlink:href="#SimHei-52" x="300"/>
      <use xlink:href="#SimHei-69" x="350"/>
      <use xlink:href="#SimHei-73" x="400"/>
      <use xlink:href="#SimHei-6b" x="450"/>
     </g>
    </g>
    <g id="line2d_35">
     <path d="M 803.816 123.8 
L 811.816 123.8 
L 819.816 123.8 
" style="fill: none; stroke-dasharray: 9.6,2.4,1.5,2.4; stroke-dashoffset: 0; stroke: #8c564b; stroke-opacity: 0.85; stroke-width: 1.5"/>
    </g>
    <g id="text_19">
     <!-- CVaR_MinRisk -->
     <g transform="translate(826.216 126.6) scale(0.08 -0.08)">
      <use xlink:href="#SimHei-43"/>
      <use xlink:href="#SimHei-56" x="50"/>
      <use xlink:href="#SimHei-61" x="100"/>
      <use xlink:href="#SimHei-52" x="150"/>
      <use xlink:href="#SimHei-5f" x="200"/>
      <use xlink:href="#SimHei-4d" x="250"/>
      <use xlink:href="#SimHei-69" x="300"/>
      <use xlink:href="#SimHei-6e" x="350"/>
      <use xlink:href="#SimHei-52" x="400"/>
      <use xlink:href="#SimHei-69" x="450"/>
      <use xlink:href="#SimHei-73" x="500"/>
      <use xlink:href="#SimHei-6b" x="550"/>
     </g>
    </g>
    <g id="line2d_36">
     <path d="M 803.816 134.4625 
L 811.816 134.4625 
L 819.816 134.4625 
" style="fill: none; stroke-dasharray: 9.6,2.4,1.5,2.4; stroke-dashoffset: 0; stroke: #e377c2; stroke-opacity: 0.85; stroke-width: 1.5"/>
    </g>
    <g id="text_20">
     <!-- NCO_MinRisk -->
     <g transform="translate(826.216 137.2625) scale(0.08 -0.08)">
      <use xlink:href="#SimHei-4e"/>
      <use xlink:href="#SimHei-43" x="50"/>
      <use xlink:href="#SimHei-4f" x="100"/>
      <use xlink:href="#SimHei-5f" x="150"/>
      <use xlink:href="#SimHei-4d" x="200"/>
      <use xlink:href="#SimHei-69" x="250"/>
      <use xlink:href="#SimHei-6e" x="300"/>
      <use xlink:href="#SimHei-52" x="350"/>
      <use xlink:href="#SimHei-69" x="400"/>
      <use xlink:href="#SimHei-73" x="450"/>
      <use xlink:href="#SimHei-6b" x="500"/>
     </g>
    </g>
    <g id="line2d_37">
     <path d="M 803.816 145.125 
L 811.816 145.125 
L 819.816 145.125 
" style="fill: none; stroke-dasharray: 9.6,2.4,1.5,2.4; stroke-dashoffset: 0; stroke: #7f7f7f; stroke-opacity: 0.85; stroke-width: 1.5"/>
    </g>
    <g id="text_21">
     <!-- MV_Sharpe -->
     <g transform="translate(826.216 147.925) scale(0.08 -0.08)">
      <defs>
       <path id="SimHei-53" d="M 2900 1325 
Q 2900 750 2537 412 
Q 2175 75 1550 75 
Q 925 75 575 425 
Q 225 775 225 1300 
L 225 1475 
L 800 1475 
L 800 1325 
Q 800 950 1025 750 
Q 1250 550 1550 550 
Q 1950 550 2137 762 
Q 2325 975 2325 1275 
Q 2325 1525 2100 1737 
Q 1875 1950 1450 2125 
Q 850 2350 587 2625 
Q 325 2900 325 3275 
Q 325 3800 687 4125 
Q 1050 4450 1550 4450 
Q 2200 4450 2487 4062 
Q 2775 3675 2775 3225 
L 2200 3225 
Q 2225 3500 2050 3725 
Q 1875 3950 1550 3950 
Q 1250 3950 1075 3787 
Q 900 3625 900 3350 
Q 900 3125 1037 2962 
Q 1175 2800 1750 2575 
Q 2300 2350 2600 2037 
Q 2900 1725 2900 1325 
z
" transform="scale(0.015625)"/>
       <path id="SimHei-68" d="M 2800 125 
L 2300 125 
L 2300 1925 
Q 2300 2225 2150 2400 
Q 2000 2575 1750 2575 
Q 1425 2575 1137 2237 
Q 850 1900 850 1400 
L 850 125 
L 350 125 
L 350 4400 
L 850 4400 
L 850 2400 
Q 1050 2675 1287 2825 
Q 1525 2975 1900 2975 
Q 2350 2975 2575 2725 
Q 2800 2475 2800 2100 
L 2800 125 
z
" transform="scale(0.015625)"/>
       <path id="SimHei-70" d="M 2825 1525 
Q 2825 800 2475 425 
Q 2125 50 1625 50 
Q 1350 50 1150 162 
Q 950 275 800 500 
L 800 -800 
L 300 -800 
L 300 2925 
L 800 2925 
L 800 2550 
Q 950 2775 1150 2875 
Q 1350 2975 1625 2975 
Q 2125 2975 2475 2612 
Q 2825 2250 2825 1525 
z
M 2275 1525 
Q 2275 2000 2087 2262 
Q 1900 2525 1525 2525 
Q 1225 2525 1012 2262 
Q 800 2000 800 1525 
Q 800 1050 1012 775 
Q 1225 500 1525 500 
Q 1900 500 2087 775 
Q 2275 1050 2275 1525 
z
" transform="scale(0.015625)"/>
      </defs>
      <use xlink:href="#SimHei-4d"/>
      <use xlink:href="#SimHei-56" x="50"/>
      <use xlink:href="#SimHei-5f" x="100"/>
      <use xlink:href="#SimHei-53" x="150"/>
      <use xlink:href="#SimHei-68" x="200"/>
      <use xlink:href="#SimHei-61" x="250"/>
      <use xlink:href="#SimHei-72" x="300"/>
      <use xlink:href="#SimHei-70" x="350"/>
      <use xlink:href="#SimHei-65" x="400"/>
     </g>
    </g>
    <g id="line2d_38">
     <path d="M 803.816 155.7875 
L 811.816 155.7875 
L 819.816 155.7875 
" style="fill: none; stroke-dasharray: 9.6,2.4,1.5,2.4; stroke-dashoffset: 0; stroke: #bcbd22; stroke-opacity: 0.85; stroke-width: 1.5"/>
    </g>
    <g id="text_22">
     <!-- NCO_Sharpe -->
     <g transform="translate(826.216 158.5875) scale(0.08 -0.08)">
      <use xlink:href="#SimHei-4e"/>
      <use xlink:href="#SimHei-43" x="50"/>
      <use xlink:href="#SimHei-4f" x="100"/>
      <use xlink:href="#SimHei-5f" x="150"/>
      <use xlink:href="#SimHei-53" x="200"/>
      <use xlink:href="#SimHei-68" x="250"/>
      <use xlink:href="#SimHei-61" x="300"/>
      <use xlink:href="#SimHei-72" x="350"/>
      <use xlink:href="#SimHei-70" x="400"/>
      <use xlink:href="#SimHei-65" x="450"/>
     </g>
    </g>
    <g id="line2d_39">
     <path d="M 803.816 166.45 
L 811.816 166.45 
L 819.816 166.45 
" style="fill: none; stroke-dasharray: 9.6,2.4,1.5,2.4; stroke-dashoffset: 0; stroke: #17becf; stroke-opacity: 0.85; stroke-width: 1.5"/>
    </g>
    <g id="text_23">
     <!-- EVaR_MinRisk -->
     <g transform="translate(826.216 169.25) scale(0.08 -0.08)">
      <use xlink:href="#SimHei-45"/>
      <use xlink:href="#SimHei-56" x="50"/>
      <use xlink:href="#SimHei-61" x="100"/>
      <use xlink:href="#SimHei-52" x="150"/>
      <use xlink:href="#SimHei-5f" x="200"/>
      <use xlink:href="#SimHei-4d" x="250"/>
      <use xlink:href="#SimHei-69" x="300"/>
      <use xlink:href="#SimHei-6e" x="350"/>
      <use xlink:href="#SimHei-52" x="400"/>
      <use xlink:href="#SimHei-69" x="450"/>
      <use xlink:href="#SimHei-73" x="500"/>
      <use xlink:href="#SimHei-6b" x="550"/>
     </g>
    </g>
    <g id="line2d_40">
     <path d="M 803.816 177.1125 
L 811.816 177.1125 
L 819.816 177.1125 
" style="fill: none; stroke-dasharray: 9.6,2.4,1.5,2.4; stroke-dashoffset: 0; stroke: #1f77b4; stroke-opacity: 0.85; stroke-width: 1.5"/>
    </g>
    <g id="text_24">
     <!-- HRP -->
     <g transform="translate(826.216 179.9125) scale(0.08 -0.08)">
      <defs>
       <path id="SimHei-48" d="M 2850 125 
L 2275 125 
L 2275 2125 
L 850 2125 
L 850 125 
L 275 125 
L 275 4400 
L 850 4400 
L 850 2600 
L 2275 2600 
L 2275 4400 
L 2850 4400 
L 2850 125 
z
" transform="scale(0.015625)"/>
      </defs>
      <use xlink:href="#SimHei-48"/>
      <use xlink:href="#SimHei-52" x="50"/>
      <use xlink:href="#SimHei-50" x="100"/>
     </g>
    </g>
    <g id="line2d_41">
     <path d="M 803.816 187.7125 
L 811.816 187.7125 
L 819.816 187.7125 
" style="fill: none; stroke: #000000; stroke-width: 1.5; stroke-linecap: square"/>
    </g>
    <g id="text_25">
     <!-- DRL -->
     <g transform="translate(826.216 190.5125) scale(0.08 -0.08)">
      <defs>
       <path id="SimHei-44" d="M 2925 2250 
Q 2925 1100 2437 612 
Q 1950 125 1125 125 
L 275 125 
L 275 4400 
L 1125 4400 
Q 2050 4400 2487 3900 
Q 2925 3400 2925 2250 
z
M 2325 2250 
Q 2325 3175 2025 3550 
Q 1725 3925 1125 3925 
L 850 3925 
L 850 600 
L 1125 600 
Q 1725 600 2025 962 
Q 2325 1325 2325 2250 
z
" transform="scale(0.015625)"/>
       <path id="SimHei-4c" d="M 2900 125 
L 300 125 
L 300 4400 
L 875 4400 
L 875 600 
L 2900 600 
L 2900 125 
z
" transform="scale(0.015625)"/>
      </defs>
      <use xlink:href="#SimHei-44"/>
      <use xlink:href="#SimHei-52" x="50"/>
      <use xlink:href="#SimHei-4c" x="100"/>
     </g>
    </g>
   </g>
  </g>
 </g>
 <defs>
  <clipPath id="p2b7ac4133c">
   <rect x="51.2" y="7.2" width="730.8" height="244.8"/>
  </clipPath>
 </defs>
</svg>
